<?xml version="1.0" encoding="UTF-8" standalone="no"?>
<!-- Created with Inkscape (http://www.inkscape.org/) -->

<svg
   xmlns:dc="http://purl.org/dc/elements/1.1/"
   xmlns:cc="http://creativecommons.org/ns#"
   xmlns:rdf="http://www.w3.org/1999/02/22-rdf-syntax-ns#"
   xmlns:svg="http://www.w3.org/2000/svg"
   xmlns="http://www.w3.org/2000/svg"
   xmlns:xlink="http://www.w3.org/1999/xlink"
   xmlns:sodipodi="http://sodipodi.sourceforge.net/DTD/sodipodi-0.dtd"
   xmlns:inkscape="http://www.inkscape.org/namespaces/inkscape"
   version="1.0"
   width="48"
   height="48"
   id="svg3304"
   inkscape:version="0.47 r22583"
   sodipodi:docname="firefox_inverted.svg">
<acyl-settings>
<filter>
    </filter>
<linearGradient
     id="linearGradient4321">
    <stop
       style="stop-color:#224058;stop-opacity:1.0;"
       offset="0"
       id="stop1" />
    <stop
       style="stop-color:#224058;stop-opacity:1.0;"
       offset="1"
       id="stop2" />
  </linearGradient>
<linearGradient
     inkscape:collect="always"
     xlink:href="#linearGradient4321"
     id="acyl_gradient"
     x1="0%"
     y1="0%"
     x2="100%"
     y2="100%" />
</acyl-settings>
<defs
     id="defs3306">
  </defs>
  <path
     style="fill:url(#acyl_gradient);filter:url(#filter1111);fill-opacity:1;fill-rule:evenodd;stroke:none"
     d="M 24.103873,2.9988259 C 21.680456,3.0863713 19.433931,3.6695808 17.491338,4.4268851 12.974783,6.1876266 10.093227,8.9081245 9.388654,9.6113602 9.339551,9.5201072 9.279297,9.4004022 9.23343,9.3009122 8.8905769,8.5572217 8.6543148,7.6524605 8.5194008,7.0036007 L 8.3641769,6.4447949 7.9605951,6.8173321 C 5.6411546,8.94564 5.6233313,12.400936 5.7564166,14.485388 4.9296145,15.339383 4.127233,16.928382 3.4280591,18.583298 2.7043825,20.296211 2.1328318,22.010389 2.0620895,22.898519 L 2,23.767773 C 2.7011239,23.13055 3.2451325,22.364634 3.8316411,21.625684 3.5615319,22.769263 3.2798003,23.948529 3.055522,25.599415 2.7553256,27.80913 2.5314268,29.971889 2.6208953,31.094337 c -0.00119,0.0058 0.00109,0.02538 0,0.03105 0.00199,0.02414 -0.00228,0.101068 0,0.12418 l 0.1862686,2.173132 0.4967163,-2.173132 c 0.06473,-0.313678 0.3465469,-1.206939 0.6829849,-2.111045 0.1909268,-0.513075 0.3335667,-0.911615 0.4967161,-1.36597 0.3657243,1.887507 1.4000295,5.822861 4.2841777,9.748057 3.3121171,4.507644 8.8834651,8.471222 17.8507411,7.512833 9.516342,-0.958499 14.486544,-6.635458 16.950441,-12.666264 2.439941,-5.972109 2.468113,-12.250053 2.421491,-14.808353 -1.14e-4,-0.0063 1.16e-4,-0.02479 0,-0.03104 -3.49e-4,-0.01872 3.62e-4,-0.07483 0,-0.09314 l -0.03104,-1.955819 -0.589849,1.83164 c -0.01712,0.05177 0.01644,0.07425 0,0.124179 -0.272729,0.828644 -0.475914,1.375512 -0.65194,1.955822 -0.610879,-4.259355 -1.248811,-7.600447 -2.856119,-9.9964158 -0.01687,-0.02516 0.01707,-0.06815 0,-0.09313 l -1.459111,-2.0800093 0.838209,2.4525353 c 0.0099,0.028 0.0217,0.0038 0.03104,0.03104 0.214728,0.6261518 0.252402,1.0123768 0.310448,1.4591048 C 40.444755,9.4136852 38.941261,8.2302334 37.359988,7.4692721 33.569428,4.6712647 29.934024,3.4173313 26.587454,3.0919602 25.737797,3.0093761 24.91168,2.9696439 24.103873,2.9988259 z m 0.527762,1.3349249 c 3.082206,0.012872 6.571859,0.8615437 10.586264,3.1355213 -1.299448,-0.3003342 -2.849952,-0.5409 -3.725372,-0.5588057 0.131231,0.042014 0.172471,0.04722 0.310448,0.093134 1.106185,0.3681253 2.378971,0.897508 3.508059,1.4591037 0.03645,0.018131 0.08807,0.012762 0.124179,0.031048 l 1.490147,0.7140301 -1.676416,-0.093135 c -0.966485,-0.073384 -1.36164,-0.05542 -1.831641,0.062086 -0.279007,0.06975 -0.87478,0.2475091 -1.334925,0.3725371 3.39154,1.2874187 5.52902,2.7487407 6.674624,4.2531327 1.238938,1.626958 1.524051,3.209352 1.831641,4.315223 0.0051,0.01799 0.02607,0.04435 0.03105,0.06209 l 0.745074,2.794029 -1.334926,-2.545671 c -0.01407,-0.02532 -0.01731,-0.0065 -0.03104,-0.03104 -0.34228,-0.610427 -0.727941,-0.851449 -1.086566,-1.179701 0.439405,2.421645 0.201996,5.527648 -0.310448,7.512833 l -0.217314,0.838209 -0.434626,-0.77612 c -0.271,-0.54878 -0.518432,-0.855137 -0.776119,-1.1797 0.0563,4.005492 -0.418207,7.302386 -1.800597,9.065071 -0.01,0.01255 0.01,0.04968 0,0.06209 l -0.03104,0 c -0.02568,0.03186 -0.03581,0.09333 -0.06209,0.124179 l -1.086572,1.272843 0.527761,-1.614329 c 0.255919,-0.806376 0.392993,-1.87593 0.465672,-2.794028 0.01628,-0.205746 0.02027,-0.247496 0.03104,-0.434628 -0.733339,1.450754 -1.567983,2.632307 -3.2597,3.880597 -0.01141,0.0091 0.01142,0.0219 0,0.03104 -5.255218,4.211125 -12.194422,-0.941144 -13.007757,-1.490148 l -0.900298,-0.620896 1.086567,0 c 0,0 2.292671,-0.02629 3.694328,-0.124179 0.549002,-0.03834 1.581552,-0.586657 2.452535,-1.179701 0.435493,-0.296521 0.840197,-0.601017 1.179702,-0.838209 0.169751,-0.118596 0.332568,-0.197951 0.465671,-0.279403 0.133101,-0.08145 0.224695,-0.150633 0.372537,-0.186267 0.666214,-0.190914 1.039599,-0.250854 1.241791,-0.310449 0.17187,-0.05065 0.206495,-0.05998 0.248358,-0.155224 -8.72e-4,-0.01434 0.01,-0.08378 0,-0.124179 -0.01975,-0.08079 -0.116629,-0.178543 -0.186269,-0.310446 -0.139293,-0.263813 -0.363763,-0.577418 -0.682984,-0.83821 -0.638444,-0.521586 -1.580305,-0.842534 -2.918209,-0.217314 -1.474232,0.688933 -2.9622,1.079375 -4.346267,0.993433 -1.384068,-0.08594 -2.651704,-0.701901 -3.508058,-1.95582 l 0,-0.03104 c -0.599891,-0.995097 -0.800616,-1.725878 -0.682985,-2.328358 0.117628,-0.602482 0.579934,-0.963538 1.086567,-1.117611 0.506633,-0.154091 1.099947,-0.152701 1.583283,-0.09313 0.230562,0.0284 0.408415,0.07547 0.589851,0.12418 0.03029,-0.336837 0.06996,-0.683536 0,-1.117611 -0.09202,-0.571078 -0.286049,-1.121334 -0.372538,-1.459104 l -0.06209,-0.248359 0.217312,-0.124179 c 2.571872,-1.574833 3.638998,-2.429229 3.973731,-2.918207 0.167321,-0.244489 0.161581,-0.382952 0.155223,-0.558807 -0.0034,-0.0952 -0.01538,-0.237227 -0.03104,-0.372536 -2.386212,0.157714 -3.826615,-0.251248 -4.594625,-0.807164 -0.407038,-0.294629 -0.632069,-0.592715 -0.776118,-0.869254 -0.07201,-0.138268 -0.119908,-0.279164 -0.155226,-0.372537 -0.03532,-0.09336 -0.07498,-0.176434 -0.06209,-0.155223 l -0.03104,-0.06209 0,-0.09314 c -0.0143,-0.998733 0.513122,-1.939705 1.148656,-2.731939 0.34006,-0.4239068 0.642466,-0.6333678 0.962388,-0.9313428 -1.91088,0.206463 -3.30495,1.0448188 -4.470447,2.1420878 l -0.186268,0.124179 -0.217313,-0.09314 c -0.469426,-0.25745 -1.404949,-0.370461 -2.359403,-0.341492 -0.954455,0.02896 -1.886872,0.153842 -2.514626,0.186269 l -0.06209,0 -0.06209,0 C 9.468204,11.156654 13.637888,7.3257496 18.143253,5.575537 20.114351,4.8098194 22.234338,4.3237346 24.631611,4.3337464 z"
     id="path3312"     />
</svg>
