<?xml version="1.0" encoding="UTF-8" standalone="no"?>
<!-- Created with Inkscape (http://www.inkscape.org/) -->

<svg
   xmlns:dc="http://purl.org/dc/elements/1.1/"
   xmlns:cc="http://creativecommons.org/ns#"
   xmlns:rdf="http://www.w3.org/1999/02/22-rdf-syntax-ns#"
   xmlns:svg="http://www.w3.org/2000/svg"
   xmlns="http://www.w3.org/2000/svg"
   xmlns:xlink="http://www.w3.org/1999/xlink"
   xmlns:sodipodi="http://sodipodi.sourceforge.net/DTD/sodipodi-0.dtd"
   xmlns:inkscape="http://www.inkscape.org/namespaces/inkscape"
   version="1.0"
   width="48"
   height="48"
   id="svg2"
   inkscape:version="0.47pre4 r22446"
   sodipodi:docname="ooo-impress.svg">
<acyl-settings>
<filter>
    </filter>
<linearGradient
     id="linearGradient4321">
    <stop
       style="stop-color:#224058;stop-opacity:1.0;"
       offset="0"
       id="stop1" />
    <stop
       style="stop-color:#224058;stop-opacity:1.0;"
       offset="1"
       id="stop2" />
  </linearGradient>
<linearGradient
     inkscape:collect="always"
     xlink:href="#linearGradient4321"
     id="acyl_gradient"
     x1="0%"
     y1="0%"
     x2="100%"
     y2="100%" />
</acyl-settings>
<defs
     id="defs5">
    <inkscape:perspective
       sodipodi:type="inkscape:persp3d"
       inkscape:vp_x="0 : 24 : 1"
       inkscape:vp_y="0 : 1000 : 0"
       inkscape:vp_z="48 : 24 : 1"
       inkscape:persp3d-origin="24 : 16 : 1"
       id="perspective34" />
    <linearGradient
       inkscape:collect="always"
       xlink:href="#linearGradient4321"
       id="linearGradient2840"
       x1="7.9829733"
       y1="21.122693"
       x2="50.22836"
       y2="21.122693"
       gradientTransform="matrix(0.79924651,0,0,1.0415338,2.605167,1.9999997)"
       gradientUnits="userSpaceOnUse" />
  </defs>
  <path
     d="m 14.466143,1.9999997 c 0,0 -5.0583811,12.8460883 -5.4457847,23.6649273 -0.3874039,10.818841 2.5194487,19.128315 5.6168567,20.186469 3.097405,1.058147 10.639006,-3.586114 17.221224,-12.288656 6.582218,-8.70254 10.891569,-21.81165 10.891569,-21.81165 0,0 -8.545871,-1.191087 -14.740683,-3.3073867 C 21.814511,6.3274024 14.466143,1.9999997 14.466143,1.9999997 z m 1.140478,6.3866796 7.470134,9.8936497 -10.150258,-6.272631 2.680124,-3.6210187 z m 21.840163,6.9569177 -0.02851,4.476378 -11.946512,-0.826847 11.975024,-3.649531 z m -23.69344,13.115502 c 1.479052,0.04142 3.420648,3.023415 6.016024,3.706555 2.927211,0.770486 5.83701,-0.269181 6.814358,0.28512 0.743535,0.421696 0.676364,3.321881 -2.6231,5.730904 -2.301318,1.680251 -5.396791,1.291505 -6.728823,0.940895 -1.441347,-0.379383 -4.010086,-2.006792 -4.847033,-5.075129 -0.53772,-1.97133 0.143739,-5.319991 1.054942,-5.559833 0.09456,-0.02489 0.215029,-0.03127 0.313632,-0.02851 z"
     id="path3136"
     style="fill:url(#linearGradient2840);fill-opacity:1;fill-rule:evenodd;stroke:none;filter:url(#filter1111)" />
  <g
     transform="matrix(-0.163237,0,0,0.1603525,-6.858047,-7.0707214)"
     id="g2196"
     style="fill:url(#acyl_gradient);filter:url(#filter1111)">
    <g
       id="g2184"
       style="fill:url(#acyl_gradient);filter:url(#filter1111)" />
    <g
       id="g2190"
       style="fill:url(#acyl_gradient);filter:url(#filter1111)" />
  </g>
</svg>
