<?xml version="1.0" encoding="UTF-8" standalone="no"?>
<!-- Created with Inkscape (http://www.inkscape.org/) -->

<svg
   xmlns:dc="http://purl.org/dc/elements/1.1/"
   xmlns:cc="http://creativecommons.org/ns#"
   xmlns:rdf="http://www.w3.org/1999/02/22-rdf-syntax-ns#"
   xmlns:svg="http://www.w3.org/2000/svg"
   xmlns="http://www.w3.org/2000/svg"
   xmlns:xlink="http://www.w3.org/1999/xlink"
   xmlns:sodipodi="http://sodipodi.sourceforge.net/DTD/sodipodi-0.dtd"
   xmlns:inkscape="http://www.inkscape.org/namespaces/inkscape"
   version="1.0"
   width="48"
   height="48"
   id="svg2383"
   inkscape:version="0.47pre4 r22446"
   sodipodi:docname="folder-locked.svg">

<acyl-settings>
<filter>
    </filter>
<linearGradient
     id="linearGradient4321">
    <stop
       style="stop-color:#224058;stop-opacity:1.0;"
       offset="0"
       id="stop1" />
    <stop
       style="stop-color:#224058;stop-opacity:1.0;"
       offset="1"
       id="stop2" />
  </linearGradient>
<linearGradient
     inkscape:collect="always"
     xlink:href="#linearGradient4321"
     id="acyl_gradient"
     x1="0%"
     y1="0%"
     x2="100%"
     y2="100%" />
</acyl-settings>
<defs
     id="defs2385">
  </defs>
  <path
     style="fill:url(#acyl_gradient);fill-opacity:1;fill-rule:evenodd;stroke:none;filter:url(#filter1111)"
     id="path3493"
     d="M 34.875 6.53125 L 17.5 16.5625 L 15.9375 13.65625 L 3.53125 20.8125 L 5.125 23.71875 L 2.625 25.15625 L 4.5 28.40625 L 2.5625 29.5 L 2.03125 29.8125 L 2.4375 30.28125 L 4.28125 32.25 L 2.34375 33.34375 L 1.75 33.6875 L 2.21875 34.125 L 15.125 46.96875 L 15.40625 47.25 L 15.53125 47.4375 L 47.75 28.84375 L 34.875 6.53125 z M 23.3125 19.09375 C 24.939033 19.082662 26.461737 19.763638 27.5625 21.25 L 29.09375 23.3125 L 29.8125 22.90625 C 30.551949 22.516779 31.184299 22.664277 31.6875 23.34375 L 35.96875 29.125 C 36.2154 29.458051 36.345043 30.338273 35.75 30.65625 L 24.875 36.375 C 24.135551 36.764471 23.277901 36.270552 23.03125 35.9375 L 18.75 30.15625 C 18.2468 29.476777 18.354308 28.951984 19.09375 28.5625 L 19.84375 28.1875 L 18.34375 26.125 C 16.626301 23.805924 17.411926 21.425644 20 20.0625 L 20.375 19.875 C 21.345527 19.363819 22.33658 19.100403 23.3125 19.09375 z M 23.34375 21.09375 C 22.830151 21.084917 22.272019 21.221714 21.625 21.5625 L 21.28125 21.75 C 18.693135 23.113172 20.184299 25.133026 20.6875 25.8125 L 21.6875 27.1875 L 27.25 24.28125 L 26.21875 22.90625 C 25.841349 22.396645 24.884547 21.120249 23.34375 21.09375 z M 25.875 26.53125 C 25.613885 26.558845 25.357958 26.658552 25.125 26.78125 C 24.193172 27.272046 23.990885 28.331251 24.625 29.1875 C 24.983607 29.671726 25.535989 29.94628 26.125 30.03125 L 27.40625 31.75 C 27.819706 32.308295 28.611197 32.538788 29.21875 32.21875 C 29.826319 31.898742 29.975957 31.18329 29.5625 30.625 L 28.28125 28.84375 C 28.408068 28.382954 28.304002 27.890188 27.96875 27.4375 C 27.493163 26.795317 26.658344 26.448465 25.875 26.53125 z M 5 29.28125 L 13.53125 43.96875 L 3.40625 33.90625 L 5.3125 32.78125 L 5.84375 32.46875 L 5.4375 32 L 3.625 30.0625 L 5 29.28125 z "
/>
</svg>
