<?xml version="1.0" encoding="UTF-8" standalone="no"?>
<!-- Created with Inkscape (http://www.inkscape.org/) -->

<svg
   xmlns:dc="http://purl.org/dc/elements/1.1/"
   xmlns:cc="http://creativecommons.org/ns#"
   xmlns:rdf="http://www.w3.org/1999/02/22-rdf-syntax-ns#"
   xmlns:svg="http://www.w3.org/2000/svg"
   xmlns="http://www.w3.org/2000/svg"
   xmlns:xlink="http://www.w3.org/1999/xlink"
   xmlns:sodipodi="http://sodipodi.sourceforge.net/DTD/sodipodi-0.dtd"
   xmlns:inkscape="http://www.inkscape.org/namespaces/inkscape"
   version="1.0"
   width="48"
   height="48"
   id="svg2383"
   inkscape:version="0.47pre4 r22446"
   sodipodi:docname="folder-urgent.svg">

<acyl-settings>
<filter>
    </filter>
<linearGradient
     id="linearGradient4321">
    <stop
       style="stop-color:#224058;stop-opacity:1.0;"
       offset="0"
       id="stop1" />
    <stop
       style="stop-color:#224058;stop-opacity:1.0;"
       offset="1"
       id="stop2" />
  </linearGradient>
<linearGradient
     inkscape:collect="always"
     xlink:href="#linearGradient4321"
     id="acyl_gradient"
     x1="0%"
     y1="0%"
     x2="100%"
     y2="100%" />
</acyl-settings>
<defs
     id="defs2385">
  </defs>
  <path
     style="fill:url(#acyl_gradient);fill-opacity:1;fill-rule:evenodd;stroke:none;filter:url(#filter1111)"
     id="path3493"
     d="M 34.875 6.53125 L 17.5 16.5625 L 15.9375 13.65625 L 3.53125 20.8125 L 5.125 23.71875 L 2.625 25.15625 L 4.5 28.40625 L 2.5625 29.5 L 2.03125 29.8125 L 2.4375 30.28125 L 4.28125 32.25 L 2.34375 33.34375 L 1.75 33.6875 L 2.21875 34.125 L 15.125 46.96875 L 15.40625 47.25 L 15.53125 47.4375 L 47.75 28.84375 L 34.875 6.53125 z M 20.6875 19.3125 C 20.985964 19.323576 21.284547 19.411532 21.5625 19.5625 L 35.9375 27.59375 L 35.96875 27.59375 C 36.440327 27.897755 36.7608 28.35712 36.8125 28.875 C 36.81347 28.88495 36.843 28.89625 36.84375 28.90625 C 36.918484 29.424598 36.643894 29.899372 36.15625 30.15625 L 24.0625 36.5 C 23.591762 36.747928 22.994064 36.756444 22.46875 36.5 C 21.906904 36.225726 21.56033 35.756102 21.46875 35.25 L 21.4375 35.25 L 19.15625 20.875 L 19.15625 20.84375 C 19.08406 20.302877 19.312989 19.779548 19.84375 19.5 C 20.094124 19.368129 20.389036 19.301424 20.6875 19.3125 z M 22.46875 22.90625 C 22.436848 22.90251 22.39961 22.924535 22.375 22.9375 C 22.32578 22.963425 22.31929 23.00327 22.34375 23.09375 L 23.9375 33.25 C 23.956148 33.446938 24.129804 33.51726 24.28125 33.4375 L 32.8125 28.9375 C 32.963947 28.857737 32.950377 28.726225 32.75 28.625 L 22.59375 22.96875 C 22.54366 22.943445 22.500652 22.90999 22.46875 22.90625 z M 25.3125 25.0625 L 26.40625 27.78125 L 26 28.0625 L 23.5625 25.96875 L 25.3125 25.0625 z M 27.28125 28.5625 C 27.848086 28.56405 28.19496 28.894357 28.28125 29.4375 C 28.323783 29.941745 28.004334 30.3141 27.4375 30.3125 C 26.911153 30.311057 26.44883 29.941739 26.40625 29.4375 C 26.371896 29.030224 26.543811 28.716451 26.875 28.59375 C 26.985395 28.55281 27.139545 28.562118 27.28125 28.5625 z M 5 29.28125 L 13.53125 43.96875 L 3.40625 33.90625 L 5.3125 32.78125 L 5.84375 32.46875 L 5.4375 32 L 3.625 30.0625 L 5 29.28125 z "
  />
</svg>
