<?xml version="1.0" encoding="UTF-8" standalone="no"?>
<!-- Created with Inkscape (http://www.inkscape.org/) -->

<svg
   xmlns:dc="http://purl.org/dc/elements/1.1/"
   xmlns:cc="http://creativecommons.org/ns#"
   xmlns:rdf="http://www.w3.org/1999/02/22-rdf-syntax-ns#"
   xmlns:svg="http://www.w3.org/2000/svg"
   xmlns="http://www.w3.org/2000/svg"
   xmlns:xlink="http://www.w3.org/1999/xlink"
   xmlns:sodipodi="http://sodipodi.sourceforge.net/DTD/sodipodi-0.dtd"
   xmlns:inkscape="http://www.inkscape.org/namespaces/inkscape"
   version="1.0"
   width="48"
   height="48"
   id="svg2383"
   inkscape:version="0.47pre4 r22446"
   sodipodi:docname="folder-pictures.svg">

<acyl-settings>
<filter>
    </filter>
<linearGradient
     id="linearGradient4321">
    <stop
       style="stop-color:#224058;stop-opacity:1.0;"
       offset="0"
       id="stop1" />
    <stop
       style="stop-color:#224058;stop-opacity:1.0;"
       offset="1"
       id="stop2" />
  </linearGradient>
<linearGradient
     inkscape:collect="always"
     xlink:href="#linearGradient4321"
     id="acyl_gradient"
     x1="0%"
     y1="0%"
     x2="100%"
     y2="100%" />
</acyl-settings>
<defs
     id="defs2385">
  </defs>
  <path
     style="fill:url(#acyl_gradient);fill-opacity:1;fill-rule:evenodd;stroke:none;filter:url(#filter1111)"
     id="path3493"
     d="M 34.875 6.53125 L 17.5 16.5625 L 15.9375 13.65625 L 3.53125 20.8125 L 5.125 23.71875 L 2.625 25.15625 L 4.5 28.40625 L 2.5625 29.5 L 2.03125 29.8125 L 2.4375 30.28125 L 4.28125 32.25 L 2.34375 33.34375 L 1.75 33.6875 L 2.21875 34.125 L 15.125 46.96875 L 15.40625 47.25 L 15.53125 47.4375 L 47.75 28.84375 L 34.875 6.53125 z M 29.84375 18.5625 C 30.261326 18.516592 30.712041 18.684623 30.96875 19.03125 L 36.09375 26 C 36.436023 26.462171 36.315476 27.047606 35.8125 27.3125 L 21.375 34.90625 C 20.872035 35.171164 20.186021 35.02467 19.84375 34.5625 L 14.6875 27.625 C 14.353208 27.173605 14.494591 26.585603 14.96875 26.3125 C 14.97644 26.30828 14.9921 26.28545 15 26.28125 L 15.125 26.21875 L 14.8125 25.78125 C 14.645375 25.55558 14.669234 25.261563 14.90625 25.125 C 14.91195 25.12178 14.9316 25.1281 14.9375 25.125 L 17.53125 23.75 C 17.782733 23.617544 18.110114 23.706416 18.28125 23.9375 L 18.625 24.40625 L 29.4375 18.6875 C 29.563241 18.621271 29.704558 18.577803 29.84375 18.5625 z M 29.84375 19.375 C 29.783057 19.364834 29.713415 19.376165 29.65625 19.40625 L 27.40625 20.59375 C 27.40181 20.59607 27.3792 20.59115 27.375 20.59375 C 27.27562 20.657876 27.23892 20.77564 27.3125 20.875 L 28.09375 21.9375 C 28.171538 22.04253 28.323171 22.06017 28.4375 22 L 30.71875 20.8125 C 30.83306 20.752294 30.85904 20.605036 30.78125 20.5 L 30 19.46875 C 29.961106 19.41623 29.904443 19.385166 29.84375 19.375 z M 25.375 23.3125 C 24.602731 23.264936 23.839637 23.421307 23.15625 23.78125 C 23.14203 23.78874 23.13907 23.77355 23.125 23.78125 C 23.11802 23.78507 23.10065 23.8087 23.09375 23.8125 C 23.08683 23.81622 23.0694 23.8086 23.0625 23.8125 C 21.309902 24.793114 20.8729 26.882731 22.09375 28.53125 C 23.333883 30.205802 25.833889 30.803597 27.65625 29.84375 C 29.478613 28.883904 29.958882 26.737054 28.71875 25.0625 C 27.943667 24.015906 26.662116 23.391773 25.375 23.3125 z M 24.90625 24.5625 C 25.887227 24.457053 26.932496 24.879002 27.53125 25.6875 C 28.329585 26.765494 28.016902 28.132102 26.84375 28.75 C 25.6706 29.367902 24.079586 29.015495 23.28125 27.9375 C 22.482911 26.859503 22.795603 25.461657 23.96875 24.84375 C 24.262037 24.689275 24.579258 24.597649 24.90625 24.5625 z M 5 29.28125 L 13.53125 43.96875 L 3.40625 33.90625 L 5.3125 32.78125 L 5.84375 32.46875 L 5.4375 32 L 3.625 30.0625 L 5 29.28125 z " />
</svg>
