<?xml version="1.0" encoding="UTF-8" standalone="no"?>
<!-- Created with Inkscape (http://www.inkscape.org/) -->

<svg
   xmlns:dc="http://purl.org/dc/elements/1.1/"
   xmlns:cc="http://creativecommons.org/ns#"
   xmlns:rdf="http://www.w3.org/1999/02/22-rdf-syntax-ns#"
   xmlns:svg="http://www.w3.org/2000/svg"
   xmlns="http://www.w3.org/2000/svg"
   xmlns:xlink="http://www.w3.org/1999/xlink"
   xmlns:sodipodi="http://sodipodi.sourceforge.net/DTD/sodipodi-0.dtd"
   xmlns:inkscape="http://www.inkscape.org/namespaces/inkscape"
   version="1.0"
   width="48"
   height="48"
   id="svg2383"
   inkscape:version="0.47pre4 r22446"
   sodipodi:docname="folder-ubuntuone.svg">

<acyl-settings>
<filter>
    </filter>
<linearGradient
     id="linearGradient4321">
    <stop
       style="stop-color:#224058;stop-opacity:1.0;"
       offset="0"
       id="stop1" />
    <stop
       style="stop-color:#224058;stop-opacity:1.0;"
       offset="1"
       id="stop2" />
  </linearGradient>
<linearGradient
     inkscape:collect="always"
     xlink:href="#linearGradient4321"
     id="acyl_gradient"
     x1="0%"
     y1="0%"
     x2="100%"
     y2="100%" />
</acyl-settings>
<defs
     id="defs2385">
  </defs>
  <path
     style="fill:url(#acyl_gradient);fill-opacity:1;fill-rule:evenodd;stroke:none;filter:url(#filter1111)"
     id="path3493"
     d="M 34.875 6.53125 L 17.5 16.5625 L 15.9375 13.65625 L 3.53125 20.8125 L 5.125 23.71875 L 2.625 25.15625 L 4.5 28.40625 L 2.5625 29.5 L 2.03125 29.8125 L 2.4375 30.28125 L 4.28125 32.25 L 2.34375 33.34375 L 1.75 33.6875 L 2.21875 34.125 L 15.125 46.96875 L 15.40625 47.25 L 15.53125 47.4375 L 47.75 28.84375 L 34.875 6.53125 z M 23.4375 21.28125 C 24.090048 21.233915 24.821102 21.545857 25.25 22.125 C 25.358807 22.271936 25.34666 22.435551 25.40625 22.59375 C 25.781539 22.608633 26.154831 22.66078 26.53125 22.75 C 26.64536 22.396786 26.85674 22.065654 27.21875 21.875 C 28.086489 21.417956 29.315862 21.774654 29.96875 22.65625 C 30.036148 22.747284 30.07772 22.84542 30.125 22.9375 C 30.760416 22.885052 31.390299 22.986826 32 23.28125 C 32.072539 23.226569 32.13382 23.16973 32.21875 23.125 C 33.069736 22.676782 34.19532 22.930077 34.96875 23.65625 C 35.496553 23.489173 36.162943 23.658925 36.53125 24.15625 C 36.941072 24.70963 36.825427 25.400919 36.28125 25.6875 C 36.075552 25.795838 35.836117 25.83925 35.59375 25.8125 C 35.462356 26.181225 35.262817 26.514455 34.875 26.71875 C 34.600479 26.863376 34.282431 26.83565 33.96875 26.84375 C 33.807264 27.456548 33.439101 28.013669 32.8125 28.34375 C 32.277662 28.625457 31.683612 28.69518 31.0625 28.625 C 30.876899 29.775878 30.261358 30.807724 29.125 31.40625 C 28.271866 31.855642 27.274934 31.949728 26.28125 31.84375 C 26.120796 32.375514 25.802127 32.865458 25.25 33.15625 C 24.398698 33.604635 23.328063 33.533236 22.40625 33.0625 C 22.249124 33.284601 22.050858 33.451737 21.78125 33.59375 C 21.164741 33.918467 20.414706 33.856915 19.71875 33.59375 C 19.60247 33.820461 19.437027 34.024814 19.1875 34.15625 C 18.427618 34.556483 17.353113 34.240938 16.78125 33.46875 C 16.209386 32.696561 16.333873 31.743993 17.09375 31.34375 C 17.341236 31.213409 17.647408 31.17735 17.9375 31.1875 C 17.962464 30.544622 18.196011 29.949756 18.8125 29.625 C 18.979625 29.536965 19.191574 29.53973 19.375 29.5 C 19.303212 29.366553 19.23181 29.229198 19.1875 29.09375 C 18.708783 29.039472 18.242793 28.880987 17.9375 28.46875 C 17.446659 27.805966 17.566725 26.968412 18.21875 26.625 C 18.7221 26.359883 19.367013 26.543942 19.875 26.90625 C 19.922126 26.8736 19.94392 26.81079 20 26.78125 C 20.27156 26.638211 20.591035 26.64947 20.90625 26.625 C 20.854183 25.360442 21.380286 24.213204 22.40625 23.4375 C 21.949193 22.692268 22.097701 21.813945 22.8125 21.4375 C 23.002471 21.337442 23.219984 21.297028 23.4375 21.28125 z M 5 29.28125 L 13.53125 43.96875 L 3.40625 33.90625 L 5.3125 32.78125 L 5.84375 32.46875 L 5.4375 32 L 3.625 30.0625 L 5 29.28125 z "
/>
</svg>
