<?xml version="1.0" encoding="UTF-8" standalone="no"?>
<!-- Created with Inkscape (http://www.inkscape.org/) -->

<svg
   xmlns:dc="http://purl.org/dc/elements/1.1/"
   xmlns:cc="http://creativecommons.org/ns#"
   xmlns:rdf="http://www.w3.org/1999/02/22-rdf-syntax-ns#"
   xmlns:svg="http://www.w3.org/2000/svg"
   xmlns="http://www.w3.org/2000/svg"
   xmlns:xlink="http://www.w3.org/1999/xlink"
   xmlns:sodipodi="http://sodipodi.sourceforge.net/DTD/sodipodi-0.dtd"
   xmlns:inkscape="http://www.inkscape.org/namespaces/inkscape"
   version="1.0"
   width="48"
   height="48"
   id="svg2383"
   inkscape:version="0.47pre4 r22446"
   sodipodi:docname="folder-scripts.svg">

<acyl-settings>
<filter>
    </filter>
<linearGradient
     id="linearGradient4321">
    <stop
       style="stop-color:#224058;stop-opacity:1.0;"
       offset="0"
       id="stop1" />
    <stop
       style="stop-color:#224058;stop-opacity:1.0;"
       offset="1"
       id="stop2" />
  </linearGradient>
<linearGradient
     inkscape:collect="always"
     xlink:href="#linearGradient4321"
     id="acyl_gradient"
     x1="0%"
     y1="0%"
     x2="100%"
     y2="100%" />
</acyl-settings>
<defs
     id="defs2385">
  </defs>
  <path
     style="fill:url(#acyl_gradient);fill-opacity:1;fill-rule:evenodd;stroke:none;filter:url(#filter1111)"
     id="path3493"
     d="M 34.875 6.53125 L 17.5 16.5625 L 15.9375 13.65625 L 3.53125 20.8125 L 5.125 23.71875 L 2.625 25.15625 L 4.5 28.40625 L 2.5625 29.5 L 2.03125 29.8125 L 2.4375 30.28125 L 4.28125 32.25 L 2.34375 33.34375 L 1.75 33.6875 L 2.21875 34.125 L 15.125 46.96875 L 15.40625 47.25 L 15.53125 47.4375 L 47.75 28.84375 L 34.875 6.53125 z M 24.3125 16.9375 C 26.7843 16.96358 25.35861 18.553367 26.375 19.6875 C 27.21098 19.845135 28.05867 20.124136 28.8125 20.5 C 30.23499 20.203912 30.31849 18.30744 32.125 19.8125 C 33.89504 21.287201 31.89136 21.491027 31.5625 22.6875 C 31.5949 22.729113 31.62435 22.77031 31.65625 22.8125 C 32.15732 23.475792 32.49932 24.187631 32.71875 24.90625 C 34.03396 25.548808 35.62726 24.419565 35.78125 26.5 C 35.94164 28.66749 34.03444 27.318814 32.8125 28.125 C 32.65024 28.758438 32.39935 29.371264 32.03125 29.9375 C 32.27611 31.413961 34.80209 31.603043 33.125 33.15625 C 31.40362 34.750462 31.09282 32.36685 29.28125 32.34375 C 28.70801 32.637194 28.1187 32.846791 27.5 33 C 26.38368 34.114106 28.29441 35.87095 25.71875 35.84375 C 23.24703 35.817621 24.64138 34.227889 23.625 33.09375 C 22.76496 32.935463 21.960916 32.701373 21.1875 32.3125 C 19.795393 32.630212 19.667839 34.493686 17.875 33 C 16.104943 31.525302 18.139877 31.321475 18.46875 30.125 C 18.430667 30.07752 18.38035 30.01742 18.34375 29.96875 C 17.843027 29.305277 17.469431 28.624871 17.25 27.90625 C 15.934788 27.263693 14.3727 28.36169 14.21875 26.28125 C 14.058415 24.11446 15.965511 25.492004 17.1875 24.6875 C 17.351454 24.040276 17.62143 23.389536 18 22.8125 C 17.731348 21.358456 15.207179 21.169618 16.875 19.625 C 16.999038 19.510121 17.108317 19.41969 17.21875 19.34375 C 18.640912 18.365992 19.03772 20.41606 20.71875 20.4375 C 21.279006 20.152877 21.86524 19.932285 22.46875 19.78125 C 23.6182 18.667923 21.72499 16.9102 24.3125 16.9375 z M 25.03125 23.65625 C 24.426049 23.628383 23.793476 23.770263 23.25 24.0625 C 21.80072 24.841801 21.40915 26.501469 22.375 27.78125 C 23.34086 29.061035 25.33197 29.498053 26.78125 28.71875 C 28.23053 27.939446 28.59086 26.24853 27.625 24.96875 C 27.021337 24.168891 26.039919 23.702694 25.03125 23.65625 z M 5 29.28125 L 13.53125 43.96875 L 3.40625 33.90625 L 5.3125 32.78125 L 5.84375 32.46875 L 5.4375 32 L 3.625 30.0625 L 5 29.28125 z "
/>
</svg>
