<?xml version="1.0" encoding="UTF-8" standalone="no"?>
<!-- Created with Inkscape (http://www.inkscape.org/) -->

<svg
   xmlns:dc="http://purl.org/dc/elements/1.1/"
   xmlns:cc="http://creativecommons.org/ns#"
   xmlns:rdf="http://www.w3.org/1999/02/22-rdf-syntax-ns#"
   xmlns:svg="http://www.w3.org/2000/svg"
   xmlns="http://www.w3.org/2000/svg"
   xmlns:xlink="http://www.w3.org/1999/xlink"
   xmlns:sodipodi="http://sodipodi.sourceforge.net/DTD/sodipodi-0.dtd"
   xmlns:inkscape="http://www.inkscape.org/namespaces/inkscape"
   version="1.0"
   width="48"
   height="48"
   id="svg2383"
   inkscape:version="0.47pre4 r22446"
   sodipodi:docname="folder-movies.svg">

<acyl-settings>
<filter>
    </filter>
<linearGradient
     id="linearGradient4321">
    <stop
       style="stop-color:#224058;stop-opacity:1.0;"
       offset="0"
       id="stop1" />
    <stop
       style="stop-color:#224058;stop-opacity:1.0;"
       offset="1"
       id="stop2" />
  </linearGradient>
<linearGradient
     inkscape:collect="always"
     xlink:href="#linearGradient4321"
     id="acyl_gradient"
     x1="0%"
     y1="0%"
     x2="100%"
     y2="100%" />
</acyl-settings>
<defs
     id="defs2385">
  </defs>
  <path
     style="fill:url(#acyl_gradient);fill-opacity:1;fill-rule:evenodd;stroke:none;filter:url(#filter1111)"
     id="path3493"
     d="M 34.875 6.53125 L 17.5 16.5625 L 15.9375 13.65625 L 3.53125 20.8125 L 5.125 23.71875 L 2.625 25.15625 L 4.5 28.40625 L 2.5625 29.5 L 2.03125 29.8125 L 2.4375 30.28125 L 4.28125 32.25 L 2.34375 33.34375 L 1.75 33.6875 L 2.21875 34.125 L 15.125 46.96875 L 15.40625 47.25 L 15.53125 47.4375 L 47.75 28.84375 L 34.875 6.53125 z M 24.9375 17.28125 C 29.218461 17.0609 33.478969 19.515773 34.96875 23.3125 C 36.671362 27.651618 34.120012 32.120946 29.28125 33.28125 C 28.28305 33.520618 27.25243 33.59284 26.25 33.53125 C 26.27688 33.606905 26.31837 33.67181 26.34375 33.75 C 26.454205 34.090039 26.51988 34.451149 26.5 34.8125 C 26.480118 35.173848 26.373593 35.537233 26.03125 35.8125 C 25.355655 36.355725 24.409335 36.271294 23.59375 36.15625 C 22.778164 36.04121 22.03266 35.925356 21.59375 36.09375 C 21.059104 36.298881 20.888298 36.492862 20.78125 36.71875 C 20.674203 36.944639 20.680954 37.241019 20.4375 37.53125 L 19.78125 37.125 C 19.861175 37.029718 19.935793 36.77081 20.09375 36.4375 C 20.251706 36.104189 20.58103 35.725415 21.25 35.46875 C 22.014709 35.175346 22.876674 35.358782 23.65625 35.46875 C 24.435823 35.578702 25.089423 35.642633 25.5 35.3125 C 25.700747 35.151092 25.73688 34.957138 25.75 34.71875 C 25.763117 34.480362 25.69369 34.182694 25.59375 33.875 C 25.546732 33.730242 25.49166 33.583911 25.4375 33.4375 C 21.895185 32.944901 18.692828 30.730468 17.4375 27.53125 C 16.006537 23.884421 17.59017 20.162724 21 18.375 C 21.631463 18.043961 22.312191 17.778347 23.0625 17.59375 C 23.08133 17.58912 23.10612 17.5671 23.125 17.5625 C 23.729845 17.417462 24.325934 17.312729 24.9375 17.28125 z M 27.3125 18.59375 C 27.179091 18.608184 27.031166 18.623842 26.90625 18.65625 C 26.728521 18.703617 26.564398 18.7934 26.40625 18.875 C 25.93186 19.119871 25.550722 19.497721 25.375 20 C 24.974654 21.144337 25.75208 22.435063 27.09375 22.875 C 28.435423 23.314931 29.81841 22.738086 30.21875 21.59375 C 30.619094 20.449413 29.904176 19.158686 28.5625 18.71875 C 28.149777 18.583412 27.712727 18.550448 27.3125 18.59375 z M 21.25 20.09375 C 21.051322 20.101497 20.843492 20.108387 20.65625 20.15625 C 20.64891 20.15827 20.6324 20.1855 20.625 20.1875 C 20.393274 20.248884 20.200022 20.315156 20 20.4375 C 19.799972 20.559837 19.588889 20.724982 19.4375 20.90625 C 18.642152 21.858631 18.972707 23.259228 20.125 24.03125 C 21.277294 24.803273 22.8609 24.671128 23.65625 23.71875 C 24.4516 22.76637 24.152296 21.365773 23 20.59375 C 22.469989 20.238651 21.846033 20.070509 21.25 20.09375 z M 31.375 23.46875 C 31.245327 23.482292 31.122412 23.5019 31 23.53125 C 30.98424 23.53495 30.95313 23.5585 30.9375 23.5625 C 30.691558 23.626284 30.483849 23.718368 30.28125 23.84375 C 29.673463 24.2199 29.29239 24.835176 29.3125 25.5625 C 29.346351 26.786776 30.506529 27.84147 31.90625 27.90625 C 33.30597 27.971036 34.4401 27.036779 34.40625 25.8125 C 34.372403 24.588221 33.180974 23.53354 31.78125 23.46875 C 31.64456 23.46242 31.504673 23.455208 31.375 23.46875 z M 26.25 24.53125 C 26.1183 24.515894 25.975826 24.530829 25.84375 24.5625 C 25.82928 24.565826 25.82656 24.5585 25.8125 24.5625 C 25.750433 24.58052 25.71038 24.62864 25.65625 24.65625 C 25.277388 24.849498 25.061159 25.223377 25.21875 25.625 C 25.404641 26.098749 26.002945 26.407935 26.53125 26.28125 C 27.059545 26.154567 27.342142 25.661248 27.15625 25.1875 C 27.016829 24.832187 26.6451 24.577319 26.25 24.53125 z M 21.65625 25.875 C 21.396527 25.863267 21.127165 25.908276 20.875 25.96875 C 20.85966 25.972258 20.82774 25.96485 20.8125 25.96875 C 20.584157 26.02785 20.359959 26.127838 20.15625 26.25 C 19.04375 26.917201 18.837383 28.283964 19.6875 29.3125 C 20.537623 30.34104 22.1375 30.635948 23.25 29.96875 C 24.362499 29.30155 24.56887 27.93479 23.71875 26.90625 C 23.205689 26.285512 22.435419 25.910199 21.65625 25.875 z M 27.71875 27.96875 C 27.551142 27.977202 27.383844 28.022911 27.21875 28.0625 C 27.20843 28.06503 27.19776 28.0599 27.1875 28.0625 C 26.94547 28.125055 26.726453 28.225934 26.53125 28.34375 C 25.685358 28.85425 25.28307 29.830193 25.65625 30.78125 C 26.120981 31.965624 27.585493 32.66046 28.90625 32.34375 C 30.227005 32.027041 30.933484 30.809371 30.46875 29.625 C 30.06211 28.588669 28.892007 27.909584 27.71875 27.96875 z M 5 29.28125 L 13.53125 43.96875 L 3.40625 33.90625 L 5.3125 32.78125 L 5.84375 32.46875 L 5.4375 32 L 3.625 30.0625 L 5 29.28125 z "
    />
</svg>
