<?xml version="1.0" encoding="UTF-8" standalone="no"?>
<!-- Created with Inkscape (http://www.inkscape.org/) -->

<svg
   xmlns:dc="http://purl.org/dc/elements/1.1/"
   xmlns:cc="http://creativecommons.org/ns#"
   xmlns:rdf="http://www.w3.org/1999/02/22-rdf-syntax-ns#"
   xmlns:svg="http://www.w3.org/2000/svg"
   xmlns="http://www.w3.org/2000/svg"
   xmlns:xlink="http://www.w3.org/1999/xlink"
   xmlns:sodipodi="http://sodipodi.sourceforge.net/DTD/sodipodi-0.dtd"
   xmlns:inkscape="http://www.inkscape.org/namespaces/inkscape"
   version="1.0"
   width="48"
   height="48"
   id="svg2383"
   inkscape:version="0.47pre4 r22446"
   sodipodi:docname="folder-c.svg">

<acyl-settings>
<filter>
    </filter>
<linearGradient
     id="linearGradient4321">
    <stop
       style="stop-color:#224058;stop-opacity:1.0;"
       offset="0"
       id="stop1" />
    <stop
       style="stop-color:#224058;stop-opacity:1.0;"
       offset="1"
       id="stop2" />
  </linearGradient>
<linearGradient
     inkscape:collect="always"
     xlink:href="#linearGradient4321"
     id="acyl_gradient"
     x1="0%"
     y1="0%"
     x2="100%"
     y2="100%" />
</acyl-settings>
<defs
     id="defs2385">
  </defs>
  <path
     style="fill:url(#acyl_gradient);fill-opacity:1;fill-rule:evenodd;stroke:none;filter:url(#filter1111)"
     id="path3493"
     d="M 34.875 6.53125 L 17.5 16.5625 L 15.9375 13.65625 L 3.53125 20.8125 L 5.125 23.71875 L 2.625 25.15625 L 4.5 28.40625 L 2.5625 29.5 L 2.03125 29.8125 L 2.4375 30.28125 L 4.28125 32.25 L 2.34375 33.34375 L 1.75 33.6875 L 2.21875 34.125 L 15.125 46.96875 L 15.40625 47.25 L 15.53125 47.4375 L 47.75 28.84375 L 34.875 6.53125 z M 24.84375 19.1875 C 28.379867 19.110779 31.951895 20.878644 33.78125 23.90625 C 36.220501 27.943244 34.627798 32.683207 30.21875 34.5 C 25.809294 36.316963 20.25173 34.505708 17.8125 30.46875 C 15.373359 26.431939 16.965545 21.723216 21.375 19.90625 C 22.477262 19.452051 23.665044 19.213074 24.84375 19.1875 z M 27.21875 19.84375 L 26.46875 20.03125 L 26 20.03125 L 25.53125 20.40625 L 25.28125 20.75 L 25.40625 20.9375 L 25.0625 21.5 L 25.46875 21.9375 L 25.65625 21.59375 L 25.96875 21.71875 L 26.28125 21.75 L 26.21875 21.34375 L 26 21.15625 L 26 20.96875 L 26.15625 20.53125 L 26.28125 20.46875 L 26.34375 20.84375 L 26.5 21.125 C 26.613809 21.036416 26.747326 20.97835 26.875 20.90625 L 26.625 21.3125 L 26.71875 21.46875 L 26.46875 21.96875 L 25.96875 22.0625 L 25.84375 21.8125 L 25.71875 22.03125 L 25.90625 22.1875 L 25.59375 22.34375 L 25.59375 22.6875 L 25.5 23 L 25.15625 23.25 L 25.5 23.34375 L 25.6875 23.53125 L 25.40625 23.65625 L 25.15625 24 L 25.46875 24.53125 L 25.625 24.46875 L 25.90625 24.5625 L 26.15625 24.25 L 26.125 23.84375 L 26.28125 23.59375 L 26.25 23.46875 L 26.65625 23.1875 L 27.03125 23.3125 L 27.34375 23.34375 L 27.375 23.6875 L 27.59375 23.5 L 27.53125 23.1875 L 27.0625 23 L 27.15625 22.96875 L 27.59375 23.0625 L 27.84375 23.34375 L 28.28125 23.5 L 28.09375 23.0625 L 28.1875 22.9375 C 28.414451 23.01511 28.629159 23.145835 28.84375 23.25 L 29.28125 23.09375 L 29.65625 23.15625 L 29.625 23.34375 L 29.46875 23.6875 L 29.09375 23.8125 L 28.53125 23.875 L 28.28125 24.03125 L 28.21875 24.28125 L 27.375 24 L 26.9375 24.0625 L 26.40625 24.34375 L 26 24.6875 C 25.896286 25.090789 25.80086 25.497967 25.71875 25.90625 L 25.78125 26.71875 L 26.03125 26.8125 L 26 27.28125 L 26.6875 27.8125 C 27.09058 27.967103 27.472172 28.095067 27.875 28.25 L 28.09375 27.84375 L 28.3125 27.9375 L 28.59375 27.5625 L 28.8125 27.625 L 29.1875 27.46875 L 29.5625 27.625 L 29.6875 28.0625 L 30.125 28.25 L 30.40625 28.75 L 30.84375 29.03125 L 30.875 29.40625 C 30.994819 29.634553 31.11565 29.871393 31.25 30.09375 C 31.551511 30.345748 31.828837 30.586844 32.125 30.84375 L 32.53125 31.28125 L 32.6875 31.5 L 32.875 31.4375 L 33.09375 31.125 L 33.46875 30.96875 L 33.6875 30.15625 L 33.5 29.96875 L 33.6875 29.53125 L 33.25 29.34375 L 33.4375 28.96875 L 33.625 28.625 L 33.65625 28.4375 L 33.375 28.125 L 32.875 27.28125 L 32.84375 26.6875 L 32.96875 26.1875 L 32.84375 25.28125 L 32.71875 25.0625 C 32.559835 25.152577 32.379018 25.23242 32.21875 25.3125 L 32.375 24.84375 L 32.6875 24.34375 L 32.78125 23.96875 L 32.59375 23.65625 C 32.474504 23.579533 32.369645 23.51405 32.25 23.4375 L 32.15625 23.78125 L 31.875 23.6875 L 31.5 23.59375 L 31.25 23.21875 L 31.75 23.375 L 32.0625 23.21875 C 32.291956 23.28276 32.497441 23.31691 32.71875 23.40625 L 32.8125 23.125 C 32.66732 22.884724 31.651672 21.803006 30.40625 21.0625 C 29.16103 20.322327 27.499999 19.875 27.5 19.875 L 27.5 20.03125 L 27.375 20.46875 L 26.78125 20.25 L 27.15625 20.09375 L 27.21875 19.84375 z M 22.8125 20.28125 L 21.8125 20.3125 L 20.90625 20.78125 L 20.1875 21.375 L 19.9375 21.25 L 19.5625 21.46875 L 19.5 21.71875 L 19.1875 21.875 L 18.96875 22.125 L 18.90625 22.21875 L 18.90625 22.25 L 18.75 22.34375 L 18.78125 22.625 L 18.4375 22.375 L 18.46875 22.5625 L 18.6875 22.875 L 18.53125 23.15625 L 18.59375 23.59375 L 18.9375 23.46875 L 18.90625 23.25 L 19.28125 23.3125 L 19.5625 23.21875 L 19.40625 22.96875 L 19 23 L 18.875 23.15625 L 18.90625 23.0625 C 18.989639 22.917388 19.06832 22.767837 19.15625 22.625 L 19.5 22.59375 C 19.791164 22.638176 20.083782 22.6746 20.375 22.71875 L 20.5625 22.34375 L 20.125 22.34375 L 19.78125 22.125 L 19.3125 22.25 L 19.40625 22.09375 L 19.6875 21.875 C 19.75249 21.798783 19.80399 21.75597 19.875 21.6875 L 19.8125 21.875 L 20.8125 22.03125 L 20.96875 22.28125 L 20.875 22.65625 L 21.65625 23.21875 L 21.8125 22.96875 L 21.875 22.375 C 22.25781 22.054011 22.580541 21.736466 22.90625 21.375 C 22.92221 21.35725 22.95276 21.33047 22.96875 21.3125 L 22.8125 20.28125 z M 22.90625 21.375 L 22.96875 21.5625 L 23.25 21.59375 L 23.53125 21.21875 L 23.21875 21.125 L 23.03125 21.34375 L 22.90625 21.375 z M 24.3125 21.6875 L 24.09375 21.75 L 24.21875 21.96875 L 24.4375 22.03125 L 24.625 22.34375 L 24.78125 22.75 L 25.125 22.53125 L 25.21875 22.21875 L 24.875 22.09375 C 24.690349 21.942492 24.511441 21.823579 24.3125 21.6875 z M 24.03125 22.375 L 23.84375 22.53125 L 24.125 22.84375 L 24.34375 22.625 L 24.03125 22.375 z M 18.21875 23.5 L 17.96875 23.5625 L 18 23.9375 C 18 23.9375 17.80254 24.08616 17.75 24.125 C 17.369046 25.100716 16.656838 27.146979 17.90625 29.96875 C 17.958122 30.02474 18.40625 30.28125 18.40625 30.28125 L 19.21875 30.375 L 19.90625 30.28125 L 20.3125 30.46875 L 20.875 30.5625 L 21.09375 30.4375 L 21.3125 30.4375 L 21.34375 30.5 L 21.4375 31.125 L 21.40625 31.4375 L 21.53125 31.53125 L 21.65625 32.03125 L 22.6875 32.65625 L 23.46875 32.875 L 23.84375 33.09375 L 24.1875 33.71875 L 24.5625 34 L 24.8125 34.71875 C 24.8125 34.71875 24.78129 34.72269 24.84375 34.78125 C 24.906432 34.83977 26.09187 34.93645 26.125 34.875 C 26.1575 34.812909 26.1875 34.75 26.1875 34.75 L 26.03125 34.625 L 26.125 34.3125 L 26.09375 34.09375 L 26.40625 33.8125 L 26.28125 33.0625 L 26.09375 32.9375 L 26.125 32.5625 L 26.5 32.28125 L 26.46875 31.75 L 26.03125 31.1875 L 26.09375 30.59375 L 25.90625 30.125 C 25.314251 30.10552 24.717304 30.08964 24.125 30.0625 L 23.625 29.75 L 23.15625 29.84375 L 22.59375 29.375 L 22.0625 29.65625 L 21.40625 29.53125 L 21.15625 30.15625 L 21.1875 30.21875 C 21.008734 30.24154 20.808947 30.33321 20.625 30.3125 L 20.34375 30.03125 L 20.125 29.71875 L 19.8125 29.90625 C 19.716791 29.689217 19.62676 29.467072 19.53125 29.25 L 19.34375 29.3125 L 19.28125 29.65625 L 19.125 29.8125 L 18.78125 29.78125 L 18.53125 29.5 L 18.375 29.09375 L 18.625 28.625 L 18.96875 28.5 L 18.90625 28.28125 L 19.375 28.1875 L 19.9375 28.4375 L 19.625 27.84375 L 19.90625 27.1875 L 19.84375 26.65625 L 20.15625 26.375 L 20.1875 25.96875 L 20.65625 25.65625 L 20.71875 25.21875 L 19.9375 25.53125 L 20.28125 25.125 L 20.625 25 L 21 24.65625 L 20.96875 24.4375 L 20.71875 24.375 L 20.46875 24.40625 L 20.4375 24.1875 L 20.125 24 L 19.875 24.25 L 19.78125 23.96875 L 19.25 23.9375 L 19.25 24.5625 L 19.375 24.71875 L 19.125 24.96875 L 19.1875 25.4375 L 18.875 25.125 L 18.21875 25.125 L 17.96875 24.90625 L 18.4375 24.25 L 18.59375 23.84375 L 18.40625 23.5 L 18.21875 23.5 z M 30 23.90625 L 30.5625 24.125 L 31.40625 24.71875 L 31.78125 24.875 L 31.84375 25.1875 L 32.1875 25.34375 C 32.088972 25.392287 31.980262 25.42538 31.875 25.46875 C 31.473489 25.188062 31.14844 24.909177 30.78125 24.59375 L 30.375 24.40625 L 29.96875 24.03125 L 30 23.90625 z M 5 29.28125 L 13.53125 43.96875 L 3.40625 33.90625 L 5.3125 32.78125 L 5.84375 32.46875 L 5.4375 32 L 3.625 30.0625 L 5 29.28125 z "
  />
</svg>
