<?xml version="1.0" encoding="UTF-8" standalone="no"?>
<!-- Created with Inkscape (http://www.inkscape.org/) -->

<svg
   xmlns:dc="http://purl.org/dc/elements/1.1/"
   xmlns:cc="http://creativecommons.org/ns#"
   xmlns:rdf="http://www.w3.org/1999/02/22-rdf-syntax-ns#"
   xmlns:svg="http://www.w3.org/2000/svg"
   xmlns="http://www.w3.org/2000/svg"
   xmlns:xlink="http://www.w3.org/1999/xlink"
   xmlns:sodipodi="http://sodipodi.sourceforge.net/DTD/sodipodi-0.dtd"
   xmlns:inkscape="http://www.inkscape.org/namespaces/inkscape"
   version="1.0"
   width="48"
   height="48"
   id="svg2383"
   inkscape:version="0.47pre4 r22446"
   sodipodi:docname="folder-system.svg">

<acyl-settings>
<filter>
    </filter>
<linearGradient
     id="linearGradient4321">
    <stop
       style="stop-color:#224058;stop-opacity:1.0;"
       offset="0"
       id="stop1" />
    <stop
       style="stop-color:#224058;stop-opacity:1.0;"
       offset="1"
       id="stop2" />
  </linearGradient>
<linearGradient
     inkscape:collect="always"
     xlink:href="#linearGradient4321"
     id="acyl_gradient"
     x1="0%"
     y1="0%"
     x2="100%"
     y2="100%" />
</acyl-settings>
<defs
     id="defs2385">
  </defs>
  <path
     style="fill:url(#acyl_gradient);fill-opacity:1;fill-rule:evenodd;stroke:none;filter:url(#filter1111)"
     id="path3493"
     d="M 34.875 6.53125 L 17.5 16.5625 L 15.9375 13.65625 L 3.53125 20.8125 L 5.125 23.71875 L 2.625 25.15625 L 4.5 28.40625 L 2.5625 29.5 L 2.03125 29.8125 L 2.4375 30.28125 L 4.28125 32.25 L 2.34375 33.34375 L 1.75 33.6875 L 2.21875 34.125 L 15.125 46.96875 L 15.40625 47.25 L 15.53125 47.4375 L 47.75 28.84375 L 34.875 6.53125 z M 27.03125 15.96875 L 30.25 16.75 L 29.5 19.28125 L 28.78125 19.78125 L 27.6875 24.84375 L 35.625 26.71875 C 36.212215 26.857158 36.578933 27.369271 36.46875 27.875 L 36.25 28.875 C 36.13982 29.380734 35.587214 29.669655 35 29.53125 L 27.09375 27.65625 L 26.875 28.59375 C 27.788908 28.997111 28.364937 29.714903 28.21875 30.375 L 27.28125 34.625 C 27.102313 35.432984 25.910769 35.830886 24.625 35.53125 L 24.15625 35.4375 C 22.870483 35.137864 21.977313 34.245483 22.15625 33.4375 L 23.09375 29.15625 C 23.24605 28.468554 24.13702 28.07502 25.1875 28.15625 L 25.375 27.25 L 22.375 26.53125 C 21.973484 27.47108 20.854739 27.876235 19.65625 27.59375 L 17.90625 27.1875 C 16.588027 26.876794 15.715965 25.729603 15.9375 24.59375 C 17.098983 24.90044 18.300388 25.152606 19.46875 25.4375 L 20.28125 25 L 20.46875 24.1875 L 19.90625 23.40625 L 16.375 22.59375 C 16.645868 21.469524 17.900528 20.845543 19.21875 21.15625 L 20.96875 21.5625 C 22.167238 21.844985 23.02723 22.72195 23 23.75 L 25.96875 24.4375 L 27.0625 19.375 L 26.6875 18.40625 L 27.03125 15.96875 z M 5 29.28125 L 13.53125 43.96875 L 3.40625 33.90625 L 5.3125 32.78125 L 5.84375 32.46875 L 5.4375 32 L 3.625 30.0625 L 5 29.28125 z "
 />
</svg>
