<?xml version="1.0" encoding="UTF-8" standalone="no"?>
<!-- Created with Inkscape (http://www.inkscape.org/) -->

<svg
   xmlns:dc="http://purl.org/dc/elements/1.1/"
   xmlns:cc="http://creativecommons.org/ns#"
   xmlns:rdf="http://www.w3.org/1999/02/22-rdf-syntax-ns#"
   xmlns:svg="http://www.w3.org/2000/svg"
   xmlns="http://www.w3.org/2000/svg"
   xmlns:xlink="http://www.w3.org/1999/xlink"
   xmlns:sodipodi="http://sodipodi.sourceforge.net/DTD/sodipodi-0.dtd"
   xmlns:inkscape="http://www.inkscape.org/namespaces/inkscape"
   version="1.0"
   width="48"
   height="48"
   id="svg2383"
   inkscape:version="0.47pre4 r22446"
   sodipodi:docname="folder-system.svg">

<acyl-settings>
<filter>
    </filter>
<linearGradient
     id="linearGradient4321">
    <stop
       style="stop-color:#224058;stop-opacity:1.0;"
       offset="0"
       id="stop1" />
    <stop
       style="stop-color:#224058;stop-opacity:1.0;"
       offset="1"
       id="stop2" />
  </linearGradient>
<linearGradient
     inkscape:collect="always"
     xlink:href="#linearGradient4321"
     id="acyl_gradient"
     x1="0%"
     y1="0%"
     x2="100%"
     y2="100%" />
</acyl-settings>
<defs
     id="defs2385">
  </defs>
  <path
     style="fill:url(#acyl_gradient);fill-opacity:1;fill-rule:evenodd;stroke:none;filter:url(#filter1111)"
     id="path3493"
     d="M 10.5625 7.4375 C 8.0656795 7.4375 6.03125 8.8312773 6.03125 10.5625 L 39.71875 10.5625 C 39.718751 8.8312775 37.684319 7.4375 35.1875 7.4375 L 10.5625 7.4375 z M 6.78125 11.375 C 3.2933645 11.375 0.5 13.787868 0.5 16.78125 L 0.5 35.75 C 0.5 38.743382 3.2933645 41.156249 6.78125 41.15625 L 41.21875 41.15625 C 44.706635 41.15625 47.5 38.743382 47.5 35.75 L 47.5 16.78125 C 47.5 13.787868 44.706635 11.375 41.21875 11.375 L 6.78125 11.375 z M 31.78125 15.6875 L 34.5 18.4375 L 31.78125 20.84375 L 30.6875 20.96875 L 25.75 25.96875 L 32.4375 32.6875 C 32.933609 33.186167 32.933609 34.001335 32.4375 34.5 L 31.46875 35.46875 C 30.972643 35.967415 30.183609 35.967414 29.6875 35.46875 L 23 28.75 L 22.0625 29.6875 C 22.692153 30.672946 22.743717 31.819263 22.09375 32.46875 L 17.90625 36.625 C 17.110667 37.419998 15.588875 37.181823 14.5 36.09375 L 14.09375 35.6875 C 13.004875 34.599428 12.766917 33.107498 13.5625 32.3125 L 17.75 28.09375 C 18.427142 27.417111 19.642647 27.511985 20.65625 28.21875 L 21.53125 27.3125 L 19.03125 24.75 C 17.907919 25.561275 16.450045 25.361513 15.4375 24.34375 L 13.9375 22.875 C 12.823795 21.755558 12.818549 19.947702 13.90625 18.8125 C 14.862573 19.835513 15.895116 20.809728 16.875 21.8125 L 18.0625 21.8125 L 18.84375 21.03125 L 18.84375 19.8125 L 15.875 16.84375 C 17.004381 15.750448 18.792549 15.786808 19.90625 16.90625 L 21.375 18.375 C 22.387543 19.392765 22.588364 20.87088 21.78125 22 L 24.3125 24.53125 L 29.25 19.53125 L 29.59375 18.25 L 31.78125 15.6875 z "
 />
</svg>
