<?xml version="1.0" encoding="UTF-8" standalone="no"?>
<!-- Created with Inkscape (http://www.inkscape.org/) -->

<svg
   xmlns:dc="http://purl.org/dc/elements/1.1/"
   xmlns:cc="http://creativecommons.org/ns#"
   xmlns:rdf="http://www.w3.org/1999/02/22-rdf-syntax-ns#"
   xmlns:svg="http://www.w3.org/2000/svg"
   xmlns="http://www.w3.org/2000/svg"
   xmlns:xlink="http://www.w3.org/1999/xlink"
   xmlns:sodipodi="http://sodipodi.sourceforge.net/DTD/sodipodi-0.dtd"
   xmlns:inkscape="http://www.inkscape.org/namespaces/inkscape"
   version="1.0"
   width="48"
   height="48"
   id="svg2383"
   inkscape:version="0.47pre4 r22446"
   sodipodi:docname="folder-bookmarks.svg">

<acyl-settings>
<filter>
    </filter>
<linearGradient
     id="linearGradient4321">
    <stop
       style="stop-color:#224058;stop-opacity:1.0;"
       offset="0"
       id="stop1" />
    <stop
       style="stop-color:#224058;stop-opacity:1.0;"
       offset="1"
       id="stop2" />
  </linearGradient>
<linearGradient
     inkscape:collect="always"
     xlink:href="#linearGradient4321"
     id="acyl_gradient"
     x1="0%"
     y1="0%"
     x2="100%"
     y2="100%" />
</acyl-settings>
<defs
     id="defs2385">
  </defs>
  <path
     style="fill:url(#acyl_gradient);fill-opacity:1;fill-rule:evenodd;stroke:none;filter:url(#filter1111)"
     id="path3493"
     d="M 10.5625 7.4375 C 8.0656795 7.4375 6.03125 8.8312773 6.03125 10.5625 L 39.71875 10.5625 C 39.718751 8.8312775 37.684319 7.4375 35.1875 7.4375 L 10.5625 7.4375 z M 6.78125 11.375 C 3.2933645 11.375 0.5 13.787868 0.5 16.78125 L 0.5 35.75 C 0.5 38.743382 3.2933645 41.156249 6.78125 41.15625 L 41.21875 41.15625 C 44.706635 41.15625 47.5 38.743382 47.5 35.75 L 47.5 16.78125 C 47.5 13.787868 44.706635 11.375 41.21875 11.375 L 6.78125 11.375 z M 23.59375 14.46875 C 24.838151 14.468005 26.274071 21.175412 27.28125 21.90625 C 28.288429 22.637088 35.0835 21.910485 35.46875 23.09375 C 35.854 24.277015 29.915082 27.691274 29.53125 28.875 C 29.147418 30.058726 31.943803 36.330457 30.9375 37.0625 C 29.931197 37.794543 24.838151 33.186755 23.59375 33.1875 C 22.349349 33.188245 17.257179 37.793338 16.25 37.0625 C 15.242821 36.331662 18.0415 30.058265 17.65625 28.875 C 17.271 27.691735 11.334918 24.277476 11.71875 23.09375 C 12.102582 21.910024 18.931197 22.638293 19.9375 21.90625 C 20.943803 21.174207 22.349349 14.469495 23.59375 14.46875 z "
 />
</svg>
