<?xml version="1.0" encoding="UTF-8" standalone="no"?>
<!-- Created with Inkscape (http://www.inkscape.org/) -->

<svg
   xmlns:dc="http://purl.org/dc/elements/1.1/"
   xmlns:cc="http://creativecommons.org/ns#"
   xmlns:rdf="http://www.w3.org/1999/02/22-rdf-syntax-ns#"
   xmlns:svg="http://www.w3.org/2000/svg"
   xmlns="http://www.w3.org/2000/svg"
   xmlns:xlink="http://www.w3.org/1999/xlink"
   xmlns:sodipodi="http://sodipodi.sourceforge.net/DTD/sodipodi-0.dtd"
   xmlns:inkscape="http://www.inkscape.org/namespaces/inkscape"
   version="1.0"
   width="48"
   height="48"
   id="svg2383"
   inkscape:version="0.47pre4 r22446"
   sodipodi:docname="folder-ubuntuone.svg">

<acyl-settings>
<filter>
    </filter>
<linearGradient
     id="linearGradient4321">
    <stop
       style="stop-color:#224058;stop-opacity:1.0;"
       offset="0"
       id="stop1" />
    <stop
       style="stop-color:#224058;stop-opacity:1.0;"
       offset="1"
       id="stop2" />
  </linearGradient>
<linearGradient
     inkscape:collect="always"
     xlink:href="#linearGradient4321"
     id="acyl_gradient"
     x1="0%"
     y1="0%"
     x2="100%"
     y2="100%" />
</acyl-settings>
<defs
     id="defs2385">
  </defs>
  <path
     style="fill:url(#acyl_gradient);fill-opacity:1;fill-rule:evenodd;stroke:none;filter:url(#filter1111)"
     id="path3493"
     d="M 10.5625 7.4375 C 8.0656795 7.4375 6.03125 8.8312773 6.03125 10.5625 L 39.71875 10.5625 C 39.718751 8.8312775 37.684319 7.4375 35.1875 7.4375 L 10.5625 7.4375 z M 6.78125 11.375 C 3.2933645 11.375 0.5 13.787868 0.5 16.78125 L 0.5 35.75 C 0.5 38.743382 3.2933645 41.156249 6.78125 41.15625 L 41.21875 41.15625 C 44.706635 41.15625 47.5 38.743382 47.5 35.75 L 47.5 16.78125 C 47.5 13.787868 44.706635 11.375 41.21875 11.375 L 6.78125 11.375 z M 25.53125 17.3125 C 26.784825 17.3125 27.78125 18.457425 27.78125 19.84375 C 27.78125 20.107539 27.66208 20.317648 27.59375 20.5625 C 28.026054 20.837016 28.412937 21.159962 28.78125 21.53125 C 29.227114 21.152687 29.746555 20.90625 30.34375 20.90625 C 31.775259 20.90625 32.96875 22.167257 32.96875 23.75 C 32.96875 23.913422 32.89982 24.036399 32.875 24.1875 C 33.675195 24.552006 34.316438 25.14249 34.78125 25.9375 C 34.915399 25.91622 35.047386 25.875 35.1875 25.875 C 36.59137 25.875 37.720342 27.004745 38 28.46875 C 38.773229 28.612008 39.40625 29.263395 39.40625 30.15625 C 39.406252 31.149743 38.647701 31.96875 37.75 31.96875 C 37.41066 31.96875 37.107879 31.855662 36.84375 31.65625 C 36.363741 32.043088 35.827301 32.343749 35.1875 32.34375 C 34.734623 32.34375 34.379387 32.077923 34 31.875 C 33.269764 32.556598 32.346235 33.0625 31.3125 33.0625 C 30.430178 33.0625 29.644192 32.700657 28.96875 32.1875 C 27.736979 33.547643 26.093401 34.46875 24.21875 34.46875 C 22.811338 34.46875 21.554888 33.937835 20.46875 33.125 C 19.810958 33.702643 19.004583 34.124998 18.09375 34.125 C 16.689358 34.125 15.492759 33.26629 14.8125 32.03125 C 14.430823 32.211209 14.038529 32.343749 13.59375 32.34375 C 12.576697 32.343749 11.750901 31.719564 11.15625 30.90625 C 10.818996 31.119951 10.442901 31.28125 10.03125 31.28125 C 8.7776739 31.28125 7.75 30.136321 7.75 28.75 C 7.75 27.363678 8.7776739 26.218749 10.03125 26.21875 C 10.439526 26.21875 10.820896 26.352054 11.15625 26.5625 C 11.750901 25.749184 12.576697 25.156249 13.59375 25.15625 C 13.869458 25.15625 14.091147 25.30153 14.34375 25.375 C 14.37584 25.153816 14.40229 24.955077 14.46875 24.75 C 13.948323 24.354245 13.5625 23.802597 13.5625 23.0625 C 13.5625 21.872596 14.424362 20.90625 15.5 20.90625 C 16.330375 20.90625 16.934314 21.530255 17.21875 22.34375 C 17.303355 22.33367 17.34498 22.3125 17.4375 22.3125 C 17.885493 22.3125 18.291915 22.535905 18.6875 22.71875 C 19.737126 21.05011 21.350642 19.92893 23.25 19.625 C 23.362558 18.351593 24.352076 17.3125 25.53125 17.3125 z "
/>
</svg>
