<?xml version="1.0" encoding="UTF-8" standalone="no"?>
<!-- Created with Inkscape (http://www.inkscape.org/) -->

<svg
   xmlns:dc="http://purl.org/dc/elements/1.1/"
   xmlns:cc="http://creativecommons.org/ns#"
   xmlns:rdf="http://www.w3.org/1999/02/22-rdf-syntax-ns#"
   xmlns:svg="http://www.w3.org/2000/svg"
   xmlns="http://www.w3.org/2000/svg"
   xmlns:xlink="http://www.w3.org/1999/xlink"
   xmlns:sodipodi="http://sodipodi.sourceforge.net/DTD/sodipodi-0.dtd"
   xmlns:inkscape="http://www.inkscape.org/namespaces/inkscape"
   version="1.0"
   width="48"
   height="48"
   id="svg2383"
   inkscape:version="0.47pre4 r22446"
   sodipodi:docname="folder-pictures.svg">

<acyl-settings>
<filter>
    </filter>
<linearGradient
     id="linearGradient4321">
    <stop
       style="stop-color:#224058;stop-opacity:1.0;"
       offset="0"
       id="stop1" />
    <stop
       style="stop-color:#224058;stop-opacity:1.0;"
       offset="1"
       id="stop2" />
  </linearGradient>
<linearGradient
     inkscape:collect="always"
     xlink:href="#linearGradient4321"
     id="acyl_gradient"
     x1="0%"
     y1="0%"
     x2="100%"
     y2="100%" />
</acyl-settings>
<defs
     id="defs2385">
  </defs>
  <path
     style="fill:url(#acyl_gradient);fill-opacity:1;fill-rule:evenodd;stroke:none;filter:url(#filter1111)"
     id="path3493"
     d="M 10.5625 7.4375 C 8.0656795 7.4375 6.03125 8.8312773 6.03125 10.5625 L 39.71875 10.5625 C 39.718751 8.8312775 37.684319 7.4375 35.1875 7.4375 L 10.5625 7.4375 z M 6.78125 11.375 C 3.2933645 11.375 0.5 13.787868 0.5 16.78125 L 0.5 35.75 C 0.5 38.743382 3.2933645 41.156249 6.78125 41.15625 L 41.21875 41.15625 C 44.706635 41.15625 47.5 38.743382 47.5 35.75 L 47.5 16.78125 C 47.5 13.787868 44.706635 11.375 41.21875 11.375 L 6.78125 11.375 z M 13.9375 18.375 C 13.94598 18.374681 13.96015 18.375 13.96875 18.375 L 17.75 18.375 C 18.114624 18.375 18.374999 18.666626 18.375 19.03125 L 18.375 19.75 L 34.09375 19.75 C 34.823001 19.75 35.406249 20.333249 35.40625 21.0625 L 35.40625 32.03125 C 35.406251 32.760501 34.823001 33.34375 34.09375 33.34375 L 13.15625 33.34375 C 12.426999 33.34375 11.8125 32.760501 11.8125 32.03125 L 11.8125 21.0625 C 11.8125 20.350251 12.388219 19.77652 13.09375 19.75 C 13.09931 19.74979 13.1195 19.750139 13.125 19.75 C 13.13633 19.749713 13.14483 19.75 13.15625 19.75 L 13.34375 19.75 L 13.34375 19.03125 C 13.34375 18.67517 13.584792 18.38833 13.9375 18.375 z M 30.46875 20.6875 C 30.315558 20.700876 30.1875 20.811975 30.1875 20.96875 L 30.1875 22.59375 C 30.1875 22.759489 30.334261 22.906251 30.5 22.90625 L 33.78125 22.90625 C 33.946987 22.90625 34.093748 22.759488 34.09375 22.59375 L 34.09375 20.96875 C 34.09375 20.803012 33.94699 20.6875 33.78125 20.6875 L 30.5 20.6875 C 30.49356 20.6875 30.47515 20.687097 30.46875 20.6875 z M 23.46875 21.75 C 20.883227 21.815282 18.812501 23.930083 18.8125 26.53125 C 18.8125 29.1735 20.951502 31.34375 23.59375 31.34375 C 26.235998 31.34375 28.406248 29.173499 28.40625 26.53125 C 28.40625 23.889 26.236002 21.75 23.59375 21.75 C 23.57313 21.75 23.55183 21.749741 23.53125 21.75 C 23.52105 21.750129 23.51013 21.749807 23.5 21.75 C 23.48984 21.750192 23.47889 21.749743 23.46875 21.75 z M 23.59375 23.46875 C 25.294699 23.468751 26.6875 24.830299 26.6875 26.53125 C 26.6875 28.232199 25.294702 29.625 23.59375 29.625 C 21.892798 29.625 20.53125 28.2322 20.53125 26.53125 C 20.53125 24.830299 21.892799 23.46875 23.59375 23.46875 z "
 />
</svg>
