<?xml version="1.0" encoding="UTF-8" standalone="no"?>
<!-- Created with Inkscape (http://www.inkscape.org/) -->

<svg
   xmlns:dc="http://purl.org/dc/elements/1.1/"
   xmlns:cc="http://creativecommons.org/ns#"
   xmlns:rdf="http://www.w3.org/1999/02/22-rdf-syntax-ns#"
   xmlns:svg="http://www.w3.org/2000/svg"
   xmlns="http://www.w3.org/2000/svg"
   xmlns:xlink="http://www.w3.org/1999/xlink"
   xmlns:sodipodi="http://sodipodi.sourceforge.net/DTD/sodipodi-0.dtd"
   xmlns:inkscape="http://www.inkscape.org/namespaces/inkscape"
   version="1.0"
   width="48"
   height="48"
   id="svg2383"
   inkscape:version="0.47pre4 r22446"
   sodipodi:docname="folder-movies.svg">

<acyl-settings>
<filter>
    </filter>
<linearGradient
     id="linearGradient4321">
    <stop
       style="stop-color:#224058;stop-opacity:1.0;"
       offset="0"
       id="stop1" />
    <stop
       style="stop-color:#224058;stop-opacity:1.0;"
       offset="1"
       id="stop2" />
  </linearGradient>
<linearGradient
     inkscape:collect="always"
     xlink:href="#linearGradient4321"
     id="acyl_gradient"
     x1="0%"
     y1="0%"
     x2="100%"
     y2="100%" />
</acyl-settings>
<defs
     id="defs2385">
  </defs>
  <path
     style="fill:url(#acyl_gradient);fill-opacity:1;fill-rule:evenodd;stroke:none;filter:url(#filter1111)"
     id="path3493"
     d="M 10.5625 7.4375 C 8.0656795 7.4375 6.03125 8.8312773 6.03125 10.5625 L 39.71875 10.5625 C 39.718751 8.8312775 37.684319 7.4375 35.1875 7.4375 L 10.5625 7.4375 z M 6.78125 11.375 C 3.2933645 11.375 0.5 13.787868 0.5 16.78125 L 0.5 35.75 C 0.5 38.743382 3.2933645 41.156249 6.78125 41.15625 L 41.21875 41.15625 C 44.706635 41.15625 47.5 38.743382 47.5 35.75 L 47.5 16.78125 C 47.5 13.787868 44.706635 11.375 41.21875 11.375 L 6.78125 11.375 z M 25.6875 14.6875 C 26.556879 14.689178 27.432814 14.803962 28.3125 15.03125 C 28.33459 15.03695 28.38417 15.02535 28.40625 15.03125 C 34.05721 16.529601 37.404598 22.349045 35.90625 28 C 34.407906 33.65096 28.61971 36.998348 22.96875 35.5 C 21.802999 35.190902 20.730162 34.698811 19.78125 34.0625 C 19.75234 34.159433 19.751 34.24492 19.71875 34.34375 C 19.578539 34.773528 19.378865 35.215056 19.09375 35.59375 C 18.808638 35.972442 18.416687 36.272514 17.875 36.375 C 16.806017 36.57724 15.943099 35.962791 15.21875 35.375 C 14.494401 34.787209 13.84021 34.25526 13.28125 34.1875 C 12.600363 34.104967 12.272068 34.223307 12 34.40625 C 11.727932 34.589194 11.517103 34.887655 11.0625 35.0625 L 10.75 34.25 C 10.899245 34.192597 11.129797 33.95744 11.53125 33.6875 C 11.932702 33.417558 12.52305 33.177983 13.375 33.28125 C 14.348878 33.399296 15.057632 34.12566 15.75 34.6875 C 16.442367 35.249338 17.069099 35.654159 17.71875 35.53125 C 18.036383 35.471161 18.218156 35.312329 18.40625 35.0625 C 18.594342 34.812671 18.748124 34.451398 18.875 34.0625 C 18.934687 33.879537 18.97743 33.720054 19.03125 33.53125 C 15.880002 30.985943 14.364022 26.728934 15.46875 22.5625 C 16.728042 17.813131 20.992852 14.6786 25.6875 14.6875 z M 23.1875 16.375 C 22.899275 16.393328 22.595772 16.452915 22.3125 16.5625 C 20.824245 17.138255 20.080495 18.824247 20.65625 20.3125 C 21.232004 21.800755 22.917995 22.544504 24.40625 21.96875 C 25.894507 21.392995 26.638258 19.707008 26.0625 18.21875 C 25.7094 17.306031 24.914641 16.687879 24.03125 16.46875 C 24.02251 16.46665 24.0088 16.47085 24 16.46875 C 23.725105 16.40327 23.475724 16.35667 23.1875 16.375 z M 30.6875 18.3125 C 30.037184 18.307113 29.386921 18.526544 28.84375 18.96875 C 27.60625 19.976223 27.43003 21.793754 28.4375 23.03125 C 29.444974 24.268744 31.262506 24.444975 32.5 23.4375 C 33.737499 22.430026 33.944976 20.612497 32.9375 19.375 C 32.52428 18.86743 31.934494 18.519125 31.34375 18.375 C 31.1327 18.32509 30.904273 18.3143 30.6875 18.3125 z M 19.09375 22.71875 C 17.500415 22.806432 16.28732 24.187921 16.375 25.78125 C 16.462681 27.374585 17.81292 28.61893 19.40625 28.53125 C 20.999585 28.443567 22.21268 27.062085 22.125 25.46875 C 22.054445 24.186617 21.177984 23.15606 20 22.84375 C 19.98211 22.83899 19.98674 22.8169 19.96875 22.8125 C 19.698881 22.74652 19.385499 22.7027 19.09375 22.71875 z M 25.6875 24.125 C 25.169837 24.118199 24.701184 24.445705 24.5625 24.96875 C 24.398908 25.585727 24.789267 26.242657 25.40625 26.40625 C 26.023226 26.569841 26.648911 26.179476 26.8125 25.5625 C 26.976092 24.94552 26.585729 24.319845 25.96875 24.15625 C 25.95188 24.15175 25.92313 24.1287 25.90625 24.125 C 25.831464 24.10917 25.76146 24.125972 25.6875 24.125 z M 30.875 25.875 C 29.99597 25.935468 29.170493 26.391084 28.65625 27.1875 C 27.790646 28.528071 28.190678 30.321898 29.53125 31.1875 C 30.871818 32.053104 32.665644 31.684326 33.53125 30.34375 C 34.396859 29.003179 33.996823 27.209355 32.65625 26.34375 C 32.394423 26.174686 32.098414 26.04457 31.8125 25.96875 C 31.79409 25.9639 31.7997 25.942 31.78125 25.9375 C 31.490496 25.86652 31.168011 25.85485 30.875 25.875 z M 23.875 28.59375 C 22.661158 28.663863 21.547161 29.511412 21.21875 30.75 C 20.809771 32.292446 21.7388 33.872268 23.28125 34.28125 C 24.823697 34.690229 26.403527 33.792442 26.8125 32.25 C 27.221481 30.707551 26.292443 29.096478 24.75 28.6875 C 24.73795 28.6843 24.73083 28.6906 24.71875 28.6875 C 24.432774 28.61745 24.155117 28.57756 23.875 28.59375 z "
 />
</svg>
