<?xml version="1.0" encoding="UTF-8" standalone="no"?>
<!-- Created with Inkscape (http://www.inkscape.org/) -->

<svg
   xmlns:dc="http://purl.org/dc/elements/1.1/"
   xmlns:cc="http://creativecommons.org/ns#"
   xmlns:rdf="http://www.w3.org/1999/02/22-rdf-syntax-ns#"
   xmlns:svg="http://www.w3.org/2000/svg"
   xmlns="http://www.w3.org/2000/svg"
   xmlns:xlink="http://www.w3.org/1999/xlink"
   xmlns:sodipodi="http://sodipodi.sourceforge.net/DTD/sodipodi-0.dtd"
   xmlns:inkscape="http://www.inkscape.org/namespaces/inkscape"
   version="1.0"
   width="48"
   height="48"
   id="svg2383"
   inkscape:version="0.47pre4 r22446"
   sodipodi:docname="folder-locked.svg">

<acyl-settings>
<filter>
    </filter>
<linearGradient
     id="linearGradient4321">
    <stop
       style="stop-color:#224058;stop-opacity:1.0;"
       offset="0"
       id="stop1" />
    <stop
       style="stop-color:#224058;stop-opacity:1.0;"
       offset="1"
       id="stop2" />
  </linearGradient>
<linearGradient
     inkscape:collect="always"
     xlink:href="#linearGradient4321"
     id="acyl_gradient"
     x1="0%"
     y1="0%"
     x2="100%"
     y2="100%" />
</acyl-settings>
<defs
     id="defs2385">
  </defs>
  <path
     style="fill:url(#acyl_gradient);fill-opacity:1;fill-rule:evenodd;stroke:none;filter:url(#filter1111)"
     id="path3493"
     d="M 10.5625 7.4375 C 8.0656795 7.4375 6.03125 8.8312773 6.03125 10.5625 L 39.71875 10.5625 C 39.718751 8.8312775 37.684319 7.4375 35.1875 7.4375 L 10.5625 7.4375 z M 6.78125 11.375 C 3.2933645 11.375 0.5 13.787868 0.5 16.78125 L 0.5 35.75 C 0.5 38.743382 3.2933645 41.156249 6.78125 41.15625 L 41.21875 41.15625 C 44.706635 41.15625 47.5 38.743382 47.5 35.75 L 47.5 16.78125 C 47.5 13.787868 44.706635 11.375 41.21875 11.375 L 6.78125 11.375 z M 23.59375 17.4375 L 24 17.4375 C 26.925 17.4375 29.03125 19.106222 29.03125 22.03125 L 29.03125 24.5625 L 29.875 24.53125 C 30.710714 24.53125 31.125 24.976786 31.125 25.8125 L 31.125 32.90625 C 31.125 33.315885 30.706501 34.15225 30.03125 34.15625 L 17.71875 34.15625 C 16.883036 34.15625 16.5 33.315886 16.5 32.90625 L 16.5 25.8125 C 16.5 24.976786 16.883036 24.5625 17.71875 24.5625 L 18.5625 24.5625 L 18.5625 22.03125 C 18.5625 19.178918 20.66875 17.4375 23.59375 17.4375 z M 23.59375 19.53125 C 20.668701 19.53125 20.65625 22.039286 20.65625 22.875 L 20.65625 24.5625 L 26.9375 24.5625 L 26.9375 22.875 C 26.9375 22.039286 26.925 19.53125 24 19.53125 L 23.59375 19.53125 z M 23.71875 25.78125 C 22.665613 25.78125 21.875 26.634363 21.875 27.6875 C 21.875 28.283071 22.134771 28.775315 22.5625 29.125 L 22.5625 31.25 C 22.5625 31.936666 23.094585 32.5 23.78125 32.5 C 24.467915 32.5 25.03125 31.936666 25.03125 31.25 L 25.03125 29.09375 C 25.411814 28.745133 25.625 28.244282 25.625 27.6875 C 25.625 26.634363 24.771887 25.78125 23.71875 25.78125 z "
 />
</svg>
