<?xml version="1.0" encoding="UTF-8" standalone="no"?>
<!-- Created with Inkscape (http://www.inkscape.org/) -->

<svg
   xmlns:dc="http://purl.org/dc/elements/1.1/"
   xmlns:cc="http://creativecommons.org/ns#"
   xmlns:rdf="http://www.w3.org/1999/02/22-rdf-syntax-ns#"
   xmlns:svg="http://www.w3.org/2000/svg"
   xmlns="http://www.w3.org/2000/svg"
   xmlns:xlink="http://www.w3.org/1999/xlink"
   xmlns:sodipodi="http://sodipodi.sourceforge.net/DTD/sodipodi-0.dtd"
   xmlns:inkscape="http://www.inkscape.org/namespaces/inkscape"
   version="1.0"
   width="48"
   height="48"
   id="svg2383"
   inkscape:version="0.47pre4 r22446"
   sodipodi:docname="folder-scripts.svg">

<acyl-settings>
<filter>
    </filter>
<linearGradient
     id="linearGradient4321">
    <stop
       style="stop-color:#224058;stop-opacity:1.0;"
       offset="0"
       id="stop1" />
    <stop
       style="stop-color:#224058;stop-opacity:1.0;"
       offset="1"
       id="stop2" />
  </linearGradient>
<linearGradient
     inkscape:collect="always"
     xlink:href="#linearGradient4321"
     id="acyl_gradient"
     x1="0%"
     y1="0%"
     x2="100%"
     y2="100%" />
</acyl-settings>
<defs
     id="defs2385">
  </defs>
  <path
     style="fill:url(#acyl_gradient);fill-opacity:1;fill-rule:evenodd;stroke:none;filter:url(#filter1111)"
     id="path3493"
     d="M 10.5625 7.4375 C 8.0656795 7.4375 6.03125 8.8312773 6.03125 10.5625 L 39.71875 10.5625 C 39.718751 8.8312775 37.684319 7.4375 35.1875 7.4375 L 10.5625 7.4375 z M 6.78125 11.375 C 3.2933645 11.375 0.5 13.787868 0.5 16.78125 L 0.5 35.75 C 0.5 38.743382 3.2933645 41.156249 6.78125 41.15625 L 41.21875 41.15625 C 44.706635 41.15625 47.5 38.743382 47.5 35.75 L 47.5 16.78125 C 47.5 13.787868 44.706635 11.375 41.21875 11.375 L 6.78125 11.375 z M 22.21875 16.3125 C 23.561722 16.369774 22.824525 18.18527 24.09375 18.9375 C 24.720639 18.946762 25.35587 19.039876 25.9375 19.1875 C 27.54241 18.738097 27.03771 16.301194 29.125 17.53125 C 31.11898 18.706271 29.01277 19.460334 29.15625 20.9375 C 29.74102 21.46657 30.26967 22.066124 30.65625 22.75 C 31.99109 23.150952 33.21871 21.513914 33.78125 23.6875 C 34.33244 25.817235 32.55031 25.094611 31.5625 26 C 31.56371 26.051905 31.56206 26.07282 31.5625 26.125 C 31.57013 26.945402 31.41054 27.761895 31.15625 28.5 C 31.83868 29.681475 33.81501 29.431212 32.6875 31.34375 C 31.51281 33.33632 30.76016 31.231139 29.28125 31.375 C 28.76792 31.859852 28.23398 32.295536 27.59375 32.625 C 26.90387 34.045501 28.83002 35.376038 26.53125 35.96875 C 24.17179 36.57711 25.365229 34.364691 23.90625 33.5 C 23.26347 33.492485 22.62653 33.371526 22.03125 33.21875 C 20.452789 33.684273 20.95276 36.130669 18.875 34.90625 C 16.88112 33.73123 18.98722 32.977164 18.84375 31.5 C 18.2398 30.959135 17.70718 30.360769 17.3125 29.65625 C 15.98935 29.288594 14.77703 30.875903 14.21875 28.71875 C 13.66756 26.589014 15.44969 27.34289 16.4375 26.4375 C 16.43513 26.377745 16.43795 26.34137 16.4375 26.28125 C 16.42988 25.460847 16.52696 24.675606 16.78125 23.9375 C 16.09882 22.756025 14.18499 22.975041 15.3125 21.0625 C 16.48681 19.070581 17.20956 21.204845 18.6875 21.0625 C 19.21051 20.566237 19.78226 20.115392 20.4375 19.78125 C 21.09458 18.369495 19.182689 17.026934 21.46875 16.4375 C 21.63877 16.39366 21.77074 16.35947 21.90625 16.34375 C 22.015313 16.331103 22.129219 16.308682 22.21875 16.3125 z M 24 23.3125 C 22.35244 23.326622 21.01655 24.636265 21.03125 26.21875 C 21.04595 27.801236 22.38368 29.10787 24.03125 29.09375 C 25.678809 29.079629 26.98345 27.769986 26.96875 26.1875 C 26.95404 24.605015 25.647559 23.29838 24 23.3125 z "
 />
</svg>
