<?xml version="1.0" encoding="UTF-8" standalone="no"?>
<!-- Created with Inkscape (http://www.inkscape.org/) -->

<svg
   xmlns:dc="http://purl.org/dc/elements/1.1/"
   xmlns:cc="http://creativecommons.org/ns#"
   xmlns:rdf="http://www.w3.org/1999/02/22-rdf-syntax-ns#"
   xmlns:svg="http://www.w3.org/2000/svg"
   xmlns="http://www.w3.org/2000/svg"
   xmlns:xlink="http://www.w3.org/1999/xlink"
   xmlns:sodipodi="http://sodipodi.sourceforge.net/DTD/sodipodi-0.dtd"
   xmlns:inkscape="http://www.inkscape.org/namespaces/inkscape"
   version="1.0"
   width="48"
   height="48"
   id="svg2383"
   inkscape:version="0.47pre4 r22446"
   sodipodi:docname="folder-urgent.svg">

<acyl-settings>
<filter>
    </filter>
<linearGradient
     id="linearGradient4321">
    <stop
       style="stop-color:#224058;stop-opacity:1.0;"
       offset="0"
       id="stop1" />
    <stop
       style="stop-color:#224058;stop-opacity:1.0;"
       offset="1"
       id="stop2" />
  </linearGradient>
<linearGradient
     inkscape:collect="always"
     xlink:href="#linearGradient4321"
     id="acyl_gradient"
     x1="0%"
     y1="0%"
     x2="100%"
     y2="100%" />
</acyl-settings>
<defs
     id="defs2385">
  </defs>
  <path
     style="fill:url(#acyl_gradient);fill-opacity:1;fill-rule:evenodd;stroke:none;filter:url(#filter1111)"
     id="path3493"
     d="M 10.5625 7.4375 C 8.0656795 7.4375 6.03125 8.8312773 6.03125 10.5625 L 39.71875 10.5625 C 39.718751 8.8312775 37.684319 7.4375 35.1875 7.4375 L 10.5625 7.4375 z M 6.78125 11.375 C 3.2933645 11.375 0.5 13.787868 0.5 16.78125 L 0.5 35.75 C 0.5 38.743382 3.2933645 41.156249 6.78125 41.15625 L 41.21875 41.15625 C 44.706635 41.15625 47.5 38.743382 47.5 35.75 L 47.5 16.78125 C 47.5 13.787868 44.706635 11.375 41.21875 11.375 L 6.78125 11.375 z M 24.03125 15.5 C 24.750095 15.5 25.438077 15.894097 25.78125 16.5625 L 34.46875 34.09375 L 34.5 34.09375 L 34.5 34.15625 C 34.754501 34.77706 34.717657 35.481103 34.375 36.09375 C 34.3684 36.1055 34.3819 36.11331 34.375 36.125 C 34.055744 36.751797 33.418802 37.125001 32.71875 37.125 L 15.375 37.125 C 14.699235 37.125 14.09637 36.786669 13.75 36.1875 C 13.379544 35.546669 13.363755 34.810504 13.65625 34.1875 L 13.65625 34.15625 L 22.28125 16.65625 L 22.3125 16.625 C 22.651604 15.974403 23.269324 15.500001 24.03125 15.5 z M 24.03125 20.875 C 23.960591 20.875 23.88769 20.915066 23.84375 21.03125 L 17.71875 33.375 C 17.587386 33.607375 17.7201 33.8125 17.9375 33.8125 L 30.21875 33.8125 C 30.436149 33.812502 30.535766 33.607377 30.40625 33.375 L 24.21875 21.03125 C 24.153998 20.915072 24.10191 20.875 24.03125 20.875 z M 22.9375 24.96875 L 25.4375 25 L 24.5 28.6875 L 23.84375 28.75 L 22.9375 24.96875 z M 24.03125 29.90625 C 24.135895 29.882858 24.234783 29.891713 24.34375 29.90625 C 24.489039 29.925633 24.635202 30.00943 24.78125 30.09375 C 25.365439 30.43103 25.451281 30.994745 25.125 31.65625 C 24.783275 32.248137 24.177939 32.493533 23.59375 32.15625 C 23.051286 31.843057 22.877026 31.154383 23.21875 30.5625 C 23.425755 30.203954 23.717314 29.976426 24.03125 29.90625 z "
 />
</svg>
