<?xml version="1.0" encoding="UTF-8" standalone="no"?>
<!-- Created with Inkscape (http://www.inkscape.org/) -->

<svg
   xmlns:dc="http://purl.org/dc/elements/1.1/"
   xmlns:cc="http://creativecommons.org/ns#"
   xmlns:rdf="http://www.w3.org/1999/02/22-rdf-syntax-ns#"
   xmlns:svg="http://www.w3.org/2000/svg"
   xmlns="http://www.w3.org/2000/svg"
   xmlns:xlink="http://www.w3.org/1999/xlink"
   xmlns:sodipodi="http://sodipodi.sourceforge.net/DTD/sodipodi-0.dtd"
   xmlns:inkscape="http://www.inkscape.org/namespaces/inkscape"
   version="1.0"
   width="48"
   height="48"
   id="svg2383"
   inkscape:version="0.47pre4 r22446"
   sodipodi:docname="folder-web.svg">

<acyl-settings>
<filter>
    </filter>
<linearGradient
     id="linearGradient4321">
    <stop
       style="stop-color:#224058;stop-opacity:1.0;"
       offset="0"
       id="stop1" />
    <stop
       style="stop-color:#224058;stop-opacity:1.0;"
       offset="1"
       id="stop2" />
  </linearGradient>
<linearGradient
     inkscape:collect="always"
     xlink:href="#linearGradient4321"
     id="acyl_gradient"
     x1="0%"
     y1="0%"
     x2="100%"
     y2="100%" />
</acyl-settings>
<defs
     id="defs2385">
  </defs>
  <path
     style="fill:url(#acyl_gradient);fill-opacity:1;fill-rule:evenodd;stroke:none;filter:url(#filter1111)"
     id="path3493"
     d="M 10.5625 7.4375 C 8.0656795 7.4375 6.03125 8.8312773 6.03125 10.5625 L 39.71875 10.5625 C 39.718751 8.8312775 37.684319 7.4375 35.1875 7.4375 L 10.5625 7.4375 z M 6.78125 11.375 C 3.2933645 11.375 0.5 13.787868 0.5 16.78125 L 0.5 35.75 C 0.5 38.743382 3.2933645 41.156249 6.78125 41.15625 L 41.21875 41.15625 C 44.706635 41.15625 47.5 38.743382 47.5 35.75 L 47.5 16.78125 C 47.5 13.787868 44.706635 11.375 41.21875 11.375 L 6.78125 11.375 z M 23.78125 15.78125 C 30.132852 15.78125 35.3125 20.790513 35.3125 27 C 35.312499 33.20977 30.132851 38.21875 23.78125 38.21875 C 17.429062 38.218747 12.3125 33.209714 12.3125 27 C 12.312498 20.790512 17.429061 15.78125 23.78125 15.78125 z M 24 16.46875 L 22.625 16.625 L 21.375 16.96875 L 21.1875 16.6875 L 20.59375 16.78125 L 20.34375 17.03125 L 19.875 17.09375 L 19.4375 17.28125 L 19.3125 17.375 L 19.28125 17.40625 L 19.0625 17.4375 L 18.875 17.78125 L 18.65625 17.34375 L 18.5625 17.53125 L 18.625 18.0625 L 18.25 18.34375 L 18 18.90625 L 18.46875 18.90625 L 18.59375 18.65625 L 18.96875 18.90625 L 19.375 18.90625 L 19.375 18.5625 L 18.875 18.375 L 18.625 18.53125 L 18.71875 18.40625 C 18.916063 18.269852 19.111538 18.131295 19.3125 18 L 19.75 18.125 C 20.054871 18.327476 20.351127 18.516582 20.65625 18.71875 L 21.15625 18.34375 L 20.59375 18.125 L 20.40625 17.6875 L 19.78125 17.59375 L 20 17.46875 L 20.4375 17.34375 C 20.565579 17.282858 20.682871 17.23578 20.8125 17.1875 L 20.59375 17.40625 L 21.65625 18.125 L 21.65625 18.5 L 21.25 18.90625 L 21.78125 19.96875 L 22.15625 19.78125 L 22.625 19.0625 C 23.29024 18.861447 23.87241 18.623632 24.5 18.34375 L 24.4375 18.625 L 24.75 18.8125 L 25.34375 18.5 L 25.0625 18.1875 L 24.6875 18.375 L 24.53125 18.34375 C 24.56202 18.32999 24.59403 18.32651 24.625 18.3125 L 25.1875 16.96875 L 24 16.46875 z M 29 18.28125 L 28.21875 18.5 L 27.6875 18.78125 L 27.6875 19.09375 L 26.90625 19.59375 L 27.09375 20.34375 L 27.53125 20 L 27.8125 20.34375 L 28.15625 20.53125 L 28.34375 19.96875 L 28.25 19.65625 L 28.34375 19.40625 L 28.84375 18.96875 L 29.03125 18.96875 L 28.84375 19.4375 L 28.84375 19.875 C 29.036754 19.82366 29.239988 19.80527 29.4375 19.78125 L 28.875 20.15625 L 28.84375 20.40625 L 28.21875 20.90625 L 27.59375 20.75 L 27.59375 20.40625 L 27.28125 20.5625 L 27.40625 20.90625 L 26.9375 20.90625 L 26.6875 21.3125 L 26.375 21.6875 L 25.8125 21.78125 L 26.125 22.125 L 26.21875 22.4375 L 25.8125 22.4375 L 25.28125 22.71875 L 25.28125 23.53125 L 25.5 23.53125 L 25.75 23.8125 L 26.28125 23.53125 L 26.5 23.03125 L 26.84375 22.8125 L 26.9375 22.625 L 27.59375 22.46875 L 27.90625 22.84375 L 28.28125 23.03125 L 28.0625 23.46875 L 28.40625 23.375 L 28.5625 22.9375 L 28.15625 22.46875 L 28.3125 22.46875 L 28.75 22.8125 L 28.84375 23.28125 L 29.21875 23.6875 L 29.3125 23.0625 L 29.5 22.96875 C 29.707681 23.179507 29.887584 23.45031 30.0625 23.6875 L 30.65625 23.71875 L 31.0625 23.96875 L 30.875 24.1875 L 30.5 24.53125 L 29.96875 24.53125 L 29.25 24.28125 L 28.875 24.34375 L 28.59375 24.625 L 27.8125 23.875 L 27.28125 23.71875 L 26.5 23.8125 L 25.75 24.03125 C 25.349314 24.475301 24.972999 24.882588 24.59375 25.34375 L 24.125 26.40625 L 24.3125 26.65625 L 23.96875 27.21875 L 24.375 28.1875 C 24.732171 28.582463 25.080847 28.979752 25.4375 29.375 L 25.96875 28.9375 L 26.1875 29.1875 L 26.78125 28.84375 L 26.96875 29.03125 L 27.53125 29.03125 L 27.84375 29.40625 L 27.6875 30.03125 L 28.0625 30.5 L 28.03125 31.25 L 28.3125 31.8125 L 28.125 32.3125 C 28.10408 32.654477 28.0625 32.970467 28.0625 33.3125 C 28.234644 33.775867 28.399946 34.220803 28.5625 34.6875 L 28.71875 35.4375 L 28.71875 35.8125 L 29 35.8125 L 29.46875 35.53125 L 30 35.53125 L 30.8125 34.65625 L 30.71875 34.3125 L 31.25 33.875 L 30.875 33.4375 L 31.34375 33.03125 L 31.84375 32.75 L 32 32.5 L 31.875 32 L 31.875 30.6875 L 32.28125 29.9375 L 32.75 29.375 L 33.25 28.1875 L 33.25 27.875 C 33.003928 27.90529 32.740664 27.92021 32.5 27.9375 L 33.03125 27.4375 L 33.6875 27 L 34.09375 26.5625 L 34.09375 26.09375 C 34.009676 25.938752 33.9284 25.780001 33.84375 25.625 L 33.5 26 L 33.25 25.75 L 32.875 25.4375 L 32.875 24.84375 L 33.3125 25.3125 L 33.78125 25.25 C 34.001297 25.445279 34.213249 25.621415 34.40625 25.84375 L 34.75 25.53125 C 34.75 25.161655 34.29541 23.325277 33.375 21.78125 C 32.45459 20.237733 30.843749 18.8125 30.84375 18.8125 L 30.71875 19.03125 L 30.28125 19.5 L 29.75 18.9375 L 30.28125 18.9375 L 30.5625 18.65625 L 29.53125 18.5 L 29 18.28125 z M 17.28125 18.53125 L 17.0625 19.03125 C 17.0625 19.03125 16.74391 19.10384 16.65625 19.125 C 15.536857 20.133344 13.27546 22.296953 12.75 26.40625 C 12.77081 26.501529 13.125 27.03125 13.125 27.03125 L 14 27.5625 L 14.84375 27.78125 L 15.21875 28.21875 L 15.78125 28.65625 L 16.09375 28.59375 L 16.375 28.71875 L 16.375 28.78125 L 16.03125 29.625 L 15.78125 29.96875 L 15.875 30.15625 L 15.65625 30.84375 L 16.40625 32.15625 L 17.125 32.8125 L 17.4375 33.25 L 17.40625 34.1875 L 17.65625 34.71875 L 17.40625 35.78125 C 17.40625 35.78125 17.37502 35.771185 17.40625 35.875 C 17.437764 35.978885 18.76271 36.65262 18.84375 36.59375 C 18.924512 36.53378 18.96875 36.46875 18.96875 36.46875 L 18.875 36.28125 L 19.21875 35.9375 L 19.34375 35.625 L 19.875 35.4375 L 20.25 34.46875 L 20.125 34.1875 L 20.4375 33.78125 L 21.0625 33.625 L 21.375 32.90625 L 21.28125 32.03125 L 21.78125 31.34375 L 21.84375 30.65625 C 21.174504 30.331834 20.539253 30.021514 19.875 29.6875 L 19.5 29.03125 L 18.90625 28.90625 L 18.59375 28.0625 L 17.75 28.15625 L 17.0625 27.625 L 16.375 28.28125 L 16.375 28.375 C 16.152926 28.312349 15.853985 28.306353 15.65625 28.1875 L 15.5 27.71875 L 15.5 27.21875 L 15 27.28125 C 15.040831 26.965385 15.11514 26.659562 15.15625 26.34375 L 14.84375 26.34375 L 14.5625 26.71875 L 14.28125 26.84375 L 13.875 26.625 L 13.8125 26.125 L 13.90625 25.5625 L 14.53125 25.125 L 15 25.125 L 15.09375 24.84375 L 15.6875 24.96875 L 16.15625 25.53125 L 16.21875 24.625 L 17.03125 24 L 17.28125 23.3125 L 17.84375 23.09375 L 18.1875 22.65625 L 18.90625 22.5 L 19.3125 21.96875 L 18.1875 21.96875 L 18.875 21.65625 L 19.375 21.65625 L 20.03125 21.4375 L 20.125 21.125 L 19.90625 20.9375 L 19.59375 20.84375 L 19.6875 20.5625 L 19.46875 20.15625 L 19 20.34375 L 19.09375 19.96875 L 18.5 19.65625 L 18.0625 20.4375 L 18.125 20.6875 L 17.65625 20.875 L 17.375 21.46875 L 17.25 20.9375 L 16.46875 20.59375 L 16.375 20.21875 L 17.375 19.625 L 17.8125 19.21875 L 17.84375 18.71875 L 17.625 18.59375 L 17.28125 18.53125 z M 25.625 19.4375 L 25.625 19.75 L 25.84375 19.9375 L 25.84375 20.4375 L 25.71875 21.03125 L 26.25 20.90625 L 26.59375 20.5625 L 26.28125 20.25 C 26.173688 19.970005 26.072124 19.706053 25.9375 19.4375 L 25.625 19.4375 z M 25.09375 20.15625 L 24.78125 20.25 L 24.875 20.78125 L 25.3125 20.59375 L 25.09375 20.15625 z M 30.9375 25.09375 L 31.40625 25.625 L 31.96875 26.8125 L 32.3125 27.15625 L 32.15625 27.59375 L 32.4375 27.9375 C 32.290029 27.94728 32.151637 27.96875 32 27.96875 C 31.73251 27.419299 31.547444 26.887317 31.34375 26.3125 L 31 25.875 L 30.78125 25.21875 L 30.9375 25.09375 z "
 />
</svg>
